<svg width="60" height="60" viewBox="0 0 60 60" fill="none" xmlns="http://www.w3.org/2000/svg">
<g clip-path="url(#clip0_218_447)">
<path fill-rule="evenodd" clip-rule="evenodd" d="M30 60C46.5685 60 60 46.5685 60 30C60 13.4315 46.5685 0 30 0C13.4315 0 0 13.4315 0 30C0 46.5685 13.4315 60 30 60Z" fill="#B536FB"/>
<path fill-rule="evenodd" clip-rule="evenodd" d="M41.0517 18.4371C39.8427 17.0627 38.1201 16.1869 36.2136 16.1552C32.5532 16.0943 29.5852 19.1874 29.5852 23.0636C29.5852 23.6137 29.6438 24.1501 29.7569 24.6651C24.2481 24.3078 19.364 21.4392 16.095 17.1152C15.5244 18.1513 15.1975 19.3623 15.1975 20.6596C15.1975 23.1154 16.3676 25.295 18.1462 26.5819C17.0597 26.5339 16.0376 26.205 15.144 25.6654C15.1433 25.6949 15.1433 25.7244 15.1433 25.7544C15.1433 29.184 17.4281 32.0612 20.4604 32.7314C19.9042 32.889 19.3186 32.9715 18.7141 32.9675C18.287 32.9646 17.8717 32.9173 17.4671 32.8322C18.3105 35.6448 20.7583 37.6972 23.6588 37.7651C21.3904 39.6481 18.5324 40.7696 15.4268 40.7632C14.8918 40.7621 14.3642 40.7276 13.8457 40.661C16.7791 42.6738 20.2631 43.8456 24.0063 43.8466C36.1981 43.8498 42.8653 33.24 42.8653 24.0372C42.8653 23.7353 42.8587 23.435 42.8461 23.1361C44.1411 22.1711 45.2648 20.9612 46.1534 19.5797C44.9648 20.1155 43.6872 20.4713 42.3466 20.6206C43.715 19.7784 44.7661 18.4305 45.2609 16.8142C43.9801 17.5909 42.5616 18.148 41.0517 18.4371Z" fill="white"/>
</g>
<defs>
<clipPath id="clip0_218_447">
<rect width="60" height="60" fill="white"/>
</clipPath>
</defs>
</svg>
