<svg width="60" height="60" viewBox="0 0 60 60" fill="none" xmlns="http://www.w3.org/2000/svg">
<g clip-path="url(#clip0_85_2)">
<mask id="mask0_85_2" style="mask-type:luminance" maskUnits="userSpaceOnUse" x="0" y="0" width="60" height="60">
<path d="M60 0H0V60H60V0Z" fill="white"/>
</mask>
<g mask="url(#mask0_85_2)">
<path fill-rule="evenodd" clip-rule="evenodd" d="M30 60C46.5685 60 60 46.5685 60 30C60 13.4315 46.5685 0 30 0C13.4315 0 0 13.4315 0 30C0 46.5685 13.4315 60 30 60Z" fill="#B536FB"/>
</g>
<path d="M24.6869 30.7706L38.1967 21.214C38.4395 21.0427 38.6893 21.4198 38.4808 21.6419L27.3313 33.5454C26.9394 33.9644 26.6866 34.5252 26.615 35.1338L26.2352 38.3665C26.1849 38.7982 25.657 38.841 25.5532 38.4232L24.0926 32.5283C23.9253 31.8559 24.1691 31.1377 24.6869 30.7706Z" fill="#C3C3C7"/>
<path d="M15.5299 29.3848L22.4425 32.3481L25.1181 42.231C25.2893 42.8639 25.9632 43.0979 26.4105 42.6779L30.2637 39.0701C30.6676 38.6921 31.2429 38.6732 31.665 39.0252L38.6148 44.8204C39.0933 45.2199 39.7712 44.9187 39.8912 44.2546L44.9823 16.1278C45.1133 15.4024 44.4927 14.7972 43.8913 15.0644L15.5218 27.6341C14.8217 27.9442 14.8278 29.0826 15.5299 29.3848ZM24.6869 30.7706L38.1967 21.214C38.4395 21.0427 38.6893 21.4198 38.4808 21.6419L27.3313 33.5454C26.9394 33.9644 26.6866 34.5252 26.615 35.1338L26.2352 38.3665C26.1849 38.7982 25.657 38.841 25.5533 38.4232L24.0926 32.5283C23.9253 31.8559 24.1691 31.1377 24.6869 30.7706Z" fill="#FAFAFF"/>
</g>
<defs>
<clipPath id="clip0_85_2">
<rect width="60" height="60" fill="white"/>
</clipPath>
</defs>
</svg>
