<svg width="32" height="32" viewBox="0 0 32 32" fill="none" xmlns="http://www.w3.org/2000/svg">
<path d="M14.3868 19.6825L11.7754 24.7188C12.9725 25.5276 14.4157 26 15.9692 26C17.5426 26 19.0013 25.5136 20.2073 24.6856L17.6131 19.6825" stroke="#C7FDD1" stroke-miterlimit="10"/>
<path d="M17.8307 19.3058L23.4979 19.0492C23.5999 17.6081 23.2873 16.122 22.5106 14.7767C21.7239 13.4141 20.5733 12.394 19.2533 11.7635L16.2175 16.5118" stroke="#C7FDD1" stroke-miterlimit="10"/>
<path d="M14.1693 19.3058L8.50212 19.0492C8.40015 17.6081 8.71269 16.122 9.48944 14.7767C10.2761 13.4141 11.4268 12.394 12.7468 11.7635L15.7825 16.5118" stroke="#C7FDD1" stroke-miterlimit="10"/>
<path d="M16 20.5C17.1046 20.5 18 19.6046 18 18.5C18 17.3954 17.1046 16.5 16 16.5C14.8954 16.5 14 17.3954 14 18.5C14 19.6046 14.8954 20.5 16 20.5Z" stroke="#C7FDD1" stroke-miterlimit="10" stroke-linecap="square"/>
<path d="M4 4V28C4 29.6569 7.89984 31 16 31C24.1002 31 28 29.6569 28 28V4" stroke="#C7FDD1" stroke-miterlimit="10"/>
<path d="M28 4C28 5.65685 24.1002 7 16 7C7.89983 7 4 5.65685 4 4C4 2.34315 7.89983 1 16 1C24.1002 1 28 2.34315 28 4Z" stroke="#C7FDD1" stroke-miterlimit="10" stroke-linecap="square"/>
</svg>
