<svg width="32" height="30" viewBox="0 0 32 30" fill="none" xmlns="http://www.w3.org/2000/svg">
<path d="M1 7V3.5C1 2.83696 1.26339 2.20107 1.73223 1.73223C2.20107 1.26339 2.83696 1 3.5 1H28.5C29.163 1 29.7989 1.26339 30.2678 1.73223C30.7366 2.20107 31 2.83696 31 3.5V18.5C31 19.163 30.7366 19.7989 30.2678 20.2678C29.7989 20.7366 29.163 21 28.5 21H17L8 28V21H3.5C2.83696 21 2.20107 20.7366 1.73223 20.2678C1.26339 19.7989 1 19.163 1 18.5V11H17" stroke="#C7FDD1" stroke-miterlimit="10"/>
<path d="M12 6L17 11L12 16" stroke="#C7FDD1" stroke-miterlimit="10" stroke-linecap="square"/>
</svg>
