<svg width="64" height="64" viewBox="0 0 64 64" fill="none" xmlns="http://www.w3.org/2000/svg">
<path d="M56 58H8C6.67392 58 5.40215 57.4732 4.46447 56.5355C3.52678 55.5979 3 54.3261 3 53V6H24L30 16H61V53C61 54.3261 60.4732 55.5979 59.5355 56.5355C58.5979 57.4732 57.3261 58 56 58Z" stroke="#C7FDD1" stroke-miterlimit="10" stroke-linecap="square"/>
<path d="M32 51C39.732 51 46 44.732 46 37C46 29.268 39.732 23 32 23C24.268 23 18 29.268 18 37C18 44.732 24.268 51 32 51Z" fill="#B536FB" stroke="#C7FDD1" stroke-miterlimit="10" stroke-linecap="square"/>
<path d="M22.1121 46.888L41.8791 27.121" stroke="#C7FDD1" stroke-miterlimit="10"/>
</svg>
