<svg width="266" height="41" viewBox="0 0 266 41" fill="none" xmlns="http://www.w3.org/2000/svg">
<path d="M25.2235 0H17.3964L0 28.2816C2.16239 32.0089 5.26601 35.1029 9.00008 37.2536C12.7341 39.4042 16.9683 40.5357 21.2774 40.5357C25.5866 40.5357 29.8199 39.4042 33.554 37.2536C37.2881 35.1029 40.3917 32.0089 42.5541 28.2816L25.2235 0ZM10.4252 28.1828L21.3104 10.491L32.1289 28.2158L10.4252 28.1828Z" fill="#B536FB"/>
<path d="M67.3803 6.60925H62.3825L52.517 33.477H57.351L59.3895 27.4258H70.0442L72.0835 33.477H76.9834L67.3803 6.60925ZM64.8818 10.687L68.8279 23.381H60.8362L64.8818 10.687Z" fill="white"/>
<path d="M87.0809 14.1044C86.2358 14.3674 85.4804 14.8607 84.8996 15.5287C84.3188 16.1966 83.9355 17.0132 83.7924 17.8867V14.3348H79.583V33.5071H83.8904V22.8524C83.8661 22.0393 84.0337 21.2319 84.3785 20.4952C84.7233 19.7584 85.236 19.1123 85.8758 18.61C86.5157 18.1078 87.2645 17.7633 88.062 17.6033C88.8596 17.4432 89.6833 17.4726 90.4674 17.6892V13.9727C89.3388 13.8303 88.1951 13.8748 87.0809 14.1044Z" fill="white"/>
<path d="M141.243 24.959C141.243 27.6227 140.223 30.1875 136.869 30.4177C133.515 30.6479 132.791 27.8203 132.791 25.2553V14.2384H128.615V26.8666C128.497 27.7793 128.582 28.7068 128.864 29.5827C129.146 30.4587 129.618 31.2612 130.246 31.9335C130.875 32.6058 131.644 33.1312 132.499 33.4718C133.354 33.8124 134.273 33.9597 135.192 33.9037C136.469 34.0285 137.755 33.8037 138.913 33.2534C140.072 32.7031 141.059 31.8481 141.769 30.7798V33.4437H145.814V14.2714H141.572L141.243 24.959Z" fill="white"/>
<path d="M99.829 28.0006V17.5762H104.828V13.9914H99.8619V8.46695H95.6525V14.156H92.364V17.7408H95.6525V28.1981C95.6525 31.2235 96.8367 33.7884 101.704 33.7884C102.81 33.8272 103.916 33.7171 104.992 33.46V30.1715C104.163 30.283 103.329 30.3483 102.493 30.3682C102.153 30.4425 101.802 30.436 101.465 30.3481C101.129 30.2603 100.818 30.0941 100.558 29.8632C100.298 29.6323 100.097 29.343 99.9703 29.0194C99.8436 28.6958 99.7951 28.3464 99.829 28.0006Z" fill="white"/>
<path d="M118.256 13.7793C116.965 13.6789 115.669 13.9314 114.511 14.5108C113.352 15.0901 112.374 15.9744 111.679 17.0679V6.67563H107.338V33.5434H111.679V23.3816C111.679 20.5206 112.567 17.8897 116.118 17.6267C119.67 17.3636 120.196 20.0273 120.196 22.5594V33.5763H124.669V20.6518C124.758 19.7663 124.657 18.8723 124.373 18.0289C124.089 17.1855 123.627 16.4124 123.02 15.7616C122.413 15.1109 121.674 14.5974 120.853 14.2554C120.031 13.9135 119.146 13.7514 118.256 13.7793Z" fill="white"/>
<path d="M157.456 14.107C156.612 14.3733 155.859 14.8679 155.279 15.5353C154.699 16.2026 154.314 17.0172 154.167 17.8893V14.3374H149.991V33.5097H154.299V22.855C154.275 22.0419 154.441 21.2345 154.786 20.4977C155.131 19.761 155.644 19.1149 156.284 18.6126C156.923 18.1104 157.673 17.7659 158.471 17.6058C159.268 17.4458 160.092 17.4752 160.876 17.6917V13.9753C159.736 13.8292 158.581 13.8738 157.456 14.107Z" fill="white"/>
<path d="M181.909 34.6424C175.148 34.6424 172.706 30.9258 172.245 26.6075H175.219C175.608 29.6162 176.811 32.1647 181.909 32.1647C185.165 32.1647 187.678 30.2533 187.678 27.3862C187.678 24.5191 186.369 23.3156 181.555 22.5369C176.245 21.7228 173.095 20.0591 173.095 15.5638C173.095 11.6702 176.458 8.69689 181.236 8.69689C186.298 8.69689 189.448 11.1746 189.944 15.67H187.183C186.581 12.4843 184.74 11.1746 181.236 11.1746C177.767 11.1746 175.962 12.9091 175.962 15.2806C175.962 17.7584 176.882 19.0326 182.05 19.8114C187.678 20.6963 190.651 22.3953 190.651 27.1738C190.651 31.4214 186.935 34.6424 181.909 34.6424Z" fill="#B536FB"/>
<path d="M194.65 34.3239V6.96246H197.588V18.7495C198.437 17.015 200.49 15.493 203.534 15.493C207.357 15.493 210.047 17.5814 210.047 22.9616V34.3239H207.109V22.7493C207.109 19.4928 205.729 18.0415 202.755 18.0415C200.03 18.0415 197.588 19.776 197.588 23.1032V34.3239H194.65Z" fill="#B536FB"/>
<path d="M216.229 11.9534C215.167 11.9534 214.282 11.0684 214.282 10.0066C214.282 8.94466 215.167 8.05975 216.229 8.05975C217.291 8.05975 218.176 8.94466 218.176 10.0066C218.176 11.0684 217.291 11.9534 216.229 11.9534ZM214.813 34.3239V15.8116H217.751V34.3239H214.813Z" fill="#B536FB"/>
<path d="M230.277 34.6424C225.039 34.6424 221.322 30.9612 221.322 25.2624V24.9792C221.322 19.3866 224.897 15.493 229.994 15.493C234.277 15.493 238.312 18.0769 238.312 24.6961V25.6518H224.366C224.508 29.8639 226.525 32.2001 230.313 32.2001C233.18 32.2001 234.844 31.1382 235.233 28.979H238.171C237.534 32.6956 234.454 34.6424 230.277 34.6424ZM224.472 23.2802H235.304C235.021 19.4574 233.038 17.9353 229.994 17.9353C226.986 17.9353 224.968 19.9883 224.472 23.2802Z" fill="#B536FB"/>
<path d="M241.829 34.3239V6.96246H244.803V34.3239H241.829Z" fill="#B536FB"/>
<path d="M256.726 34.6424C251.877 34.6424 248.373 31.209 248.373 25.4394V25.1562C248.373 19.4928 251.912 15.493 257.009 15.493C260.089 15.493 262 16.9796 263.062 18.7849V6.96246H266V34.3239H263.062V31.1382C262 32.9434 259.416 34.6424 256.726 34.6424ZM257.045 32.2001C260.478 32.2001 263.168 29.9347 263.168 25.1916V24.9084C263.168 20.1653 260.903 17.9353 257.293 17.9353C253.611 17.9353 251.417 20.5193 251.417 25.0146V25.2978C251.417 29.9701 253.93 32.2001 257.045 32.2001Z" fill="#B536FB"/>
</svg>
