<svg width="64" height="64" viewBox="0 0 64 64" fill="none" xmlns="http://www.w3.org/2000/svg">
<path d="M4.54796 50.527L28.266 7.233C28.6286 6.55823 29.1672 5.99433 29.8247 5.60124C30.4822 5.20816 31.2339 5.00058 32 5.00058C32.766 5.00058 33.5177 5.20816 34.1752 5.60124C34.8327 5.99433 35.3714 6.55823 35.734 7.233L59.452 50.527C59.819 51.1845 60.0093 51.926 60.004 52.679C59.9987 53.4321 59.7981 54.1708 59.4218 54.8231C59.0455 55.4754 58.5064 56.0189 57.8572 56.4005C57.208 56.782 56.4709 56.9886 55.718 57H8.28196C7.52901 56.9886 6.7919 56.782 6.14269 56.4005C5.49348 56.0189 4.95438 55.4754 4.5781 54.8231C4.20182 54.1708 4.00124 53.4321 3.99596 52.679C3.99067 51.926 4.18087 51.1845 4.54796 50.527Z" fill="#B536FB" stroke="#C7FDD1" stroke-miterlimit="10" stroke-linecap="square"/>
<path d="M32 20V42" stroke="#C7FDD1" stroke-miterlimit="10" stroke-linecap="square"/>
<path d="M32 50C32.5523 50 33 49.5523 33 49C33 48.4477 32.5523 48 32 48C31.4477 48 31 48.4477 31 49C31 49.5523 31.4477 50 32 50Z" stroke="#C7FDD1" stroke-miterlimit="10" stroke-linecap="square"/>
</svg>
