<svg width="64" height="64" viewBox="0 0 64 64" fill="none" xmlns="http://www.w3.org/2000/svg">
<path d="M56 36C56 42.3652 53.4714 48.4697 48.9706 52.9706C44.4697 57.4714 38.3652 60 32 60C25.6348 60 19.5303 57.4714 15.0294 52.9706C10.5286 48.4697 8 42.3652 8 36V9.33333L32 4L56 9.33333V36Z" fill="#1A0016" stroke="#C7FDD1" stroke-miterlimit="10" stroke-linecap="square" stroke-linejoin="round"/>
<path d="M42.6666 30.6667H21.3333V44H42.6666V30.6667Z" fill="#B536FB" stroke="#C7FDD1" stroke-miterlimit="10" stroke-linecap="square" stroke-linejoin="round"/>
<path d="M26.6667 30.6667V22.6667C26.6709 21.2535 27.2342 19.8994 28.2334 18.9001C29.2327 17.9008 30.5868 17.3376 32 17.3333C33.4132 17.3376 34.7673 17.9008 35.7666 18.9001C36.7659 19.8994 37.3291 21.2535 37.3334 22.6667V30.6667" stroke="#C7FDD1" stroke-miterlimit="10" stroke-linecap="square" stroke-linejoin="round"/>
</svg>
