<svg width="64" height="64" viewBox="0 0 64 64" fill="none" xmlns="http://www.w3.org/2000/svg">
<path d="M28.7737 39.365L23.5509 49.4375C25.9451 51.0553 28.8315 52 31.9385 52C35.0853 52 38.0028 51.0271 40.4147 49.3713L35.2263 39.365" fill="#B536FB"/>
<path d="M28.7737 39.365L23.5509 49.4375C25.9451 51.0553 28.8315 52 31.9385 52C35.0853 52 38.0028 51.0271 40.4147 49.3713L35.2263 39.365" stroke="#C7FDD1" stroke-miterlimit="10"/>
<path d="M35.6613 38.6116L46.9958 38.0984C47.1997 35.216 46.5747 32.244 45.0212 29.5532C43.4478 26.828 41.1465 24.7879 38.5065 23.527L32.4351 33.0235" fill="#B536FB"/>
<path d="M35.6613 38.6116L46.9958 38.0984C47.1997 35.216 46.5747 32.244 45.0212 29.5532C43.4478 26.828 41.1465 24.7879 38.5065 23.527L32.4351 33.0235" stroke="#C7FDD1" stroke-miterlimit="10"/>
<path d="M28.3387 38.6116L17.0042 38.0984C16.8003 35.216 17.4254 32.244 18.9789 29.5532C20.5523 26.828 22.8535 24.7879 25.4935 23.527L31.565 33.0235" fill="#B536FB"/>
<path d="M28.3387 38.6116L17.0042 38.0984C16.8003 35.216 17.4254 32.244 18.9789 29.5532C20.5523 26.828 22.8535 24.7879 25.4935 23.527L31.565 33.0235" stroke="#C7FDD1" stroke-miterlimit="10"/>
<path d="M32 41C34.2091 41 36 39.2091 36 37C36 34.7909 34.2091 33 32 33C29.7909 33 28 34.7909 28 37C28 39.2091 29.7909 41 32 41Z" fill="#B536FB" stroke="#C7FDD1" stroke-miterlimit="10" stroke-linecap="square"/>
<path d="M8 8V56C8 59.3137 15.7997 62 32 62C48.2003 62 56 59.3137 56 56V8" stroke="#C7FDD1" stroke-miterlimit="10"/>
<path d="M56 8C56 11.3137 48.2003 14 32 14C15.7997 14 8 11.3137 8 8C8 4.68629 15.7997 2 32 2C48.2003 2 56 4.68629 56 8Z" stroke="#C7FDD1" stroke-miterlimit="10" stroke-linecap="square"/>
</svg>
