<svg width="32" height="32" viewBox="0 0 32 32" fill="none" xmlns="http://www.w3.org/2000/svg">
<path d="M16 23C17.8565 23 19.637 22.2625 20.9497 20.9497C22.2625 19.637 23 17.8565 23 16C23 17.8565 23.7375 19.637 25.0503 20.9497C26.363 22.2625 28.1435 23 30 23" stroke="#C7FDD1" stroke-miterlimit="10"/>
<path d="M25.6845 24.5C24.8485 25.1525 24.1723 25.987 23.7072 26.94C23.242 27.893 23.0002 28.9395 23 30C23 28.1435 22.2625 26.363 20.9497 25.0503C19.637 23.7375 17.8565 23 16 23" stroke="#C7FDD1" stroke-miterlimit="10"/>
<path d="M2 9C3.85652 9 5.63699 8.2625 6.94975 6.94975C8.2625 5.63699 9 3.85652 9 2C9 3.85652 9.7375 5.63699 11.0503 6.94975C12.363 8.2625 14.1435 9 16 9" stroke="#C7FDD1" stroke-miterlimit="10"/>
<path d="M21 6.5C22.1935 6.5 23.3381 6.02589 24.182 5.18198C25.0259 4.33807 25.5 3.19347 25.5 2C25.5 3.19347 25.9741 4.33807 26.818 5.18198C27.6619 6.02589 28.8065 6.5 30 6.5" stroke="#C7FDD1" stroke-miterlimit="10"/>
<path d="M21 6.5C22.1935 6.5 23.3381 6.97411 24.182 7.81802C25.0259 8.66193 25.5 9.80653 25.5 11C25.5 9.80653 25.9741 8.66193 26.818 7.81802C27.6619 6.97411 28.8065 6.5 30 6.5" stroke="#C7FDD1" stroke-miterlimit="10"/>
<path d="M2 25.5C3.19347 25.5 4.33807 25.0259 5.18198 24.182C6.02589 23.3381 6.5 22.1935 6.5 21C6.5 22.1935 6.97411 23.3381 7.81802 24.182C8.66193 25.0259 9.80653 25.5 11 25.5" stroke="#C7FDD1" stroke-miterlimit="10"/>
<path d="M2 25.5C3.19347 25.5 4.33807 25.9741 5.18198 26.818C6.02589 27.6619 6.5 28.8065 6.5 30C6.5 28.8065 6.97411 27.6619 7.81802 26.818C8.66193 25.9741 9.80653 25.5 11 25.5" stroke="#C7FDD1" stroke-miterlimit="10"/>
<path d="M11.6845 10.5C10.8485 11.1525 10.1723 11.987 9.70715 12.94C9.24199 13.893 9.00015 14.9395 9 16C9 14.1435 8.2625 12.363 6.94975 11.0503C5.63699 9.7375 3.85652 9 2 9" stroke="#C7FDD1" stroke-miterlimit="10"/>
</svg>
