<svg width="32" height="32" viewBox="0 0 32 32" fill="none" xmlns="http://www.w3.org/2000/svg">
<g clip-path="url(#clip0_1377_3816)">
<path fill-rule="evenodd" clip-rule="evenodd" d="M31 16L26.7025 15.463C26.4329 14.3188 25.9803 13.2258 25.362 12.226L28.0205 8.808L25.192 5.9795L21.774 8.638C20.7738 8.0212 19.6808 7.56942 18.537 7.3L18 3H14L13.463 7.3C12.3188 7.56957 11.2258 8.02224 10.226 8.6405L6.808 5.9795L3.9795 8.808L6.638 12.226C6.0212 13.2262 5.56942 14.3192 5.3 15.463L1 16V20L5.3 20.537C5.56957 21.6812 6.02224 22.7742 6.6405 23.774L3.9795 27.192L6.808 30.0205L10.226 27.362C11.123 27.916 12.0947 28.3372 13.1109 28.6131L13.9374 22.0005C12.4897 21.2526 11.5 19.7419 11.5 18C11.5 15.5147 13.5147 13.5 16 13.5C18.4853 13.5 20.5 15.5147 20.5 18C20.5 19.7419 19.5103 21.2526 18.0626 22.0005L18.8892 28.6133C19.9055 28.3378 20.8773 27.9165 21.774 27.362L25.192 30.0205L28.0205 27.192L25.362 23.774C25.9797 22.7739 26.4323 21.681 26.7025 20.537L31 20V16Z" fill="#B536FB"/>
<path d="M26.7025 15.463L26.2158 15.5777L26.2955 15.916L26.6405 15.9591L26.7025 15.463ZM31 16H31.5V15.5586L31.062 15.5039L31 16ZM25.362 12.226L24.9673 11.919L24.7539 12.1934L24.9367 12.489L25.362 12.226ZM28.0205 8.808L28.4152 9.11497L28.6862 8.76656L28.3741 8.45445L28.0205 8.808ZM25.192 5.9795L25.5456 5.62595L25.2334 5.31383L24.885 5.58483L25.192 5.9795ZM21.774 8.638L21.5116 9.06359L21.807 9.24577L22.081 9.03267L21.774 8.638ZM18.537 7.3L18.0409 7.36196L18.0839 7.70697L18.4224 7.78668L18.537 7.3ZM18 3L18.4961 2.93804L18.4414 2.5H18V3ZM14 3V2.5H13.5586L13.5039 2.93804L14 3ZM13.463 7.3L13.5777 7.78667L13.9161 7.70694L13.9591 7.36196L13.463 7.3ZM10.226 8.6405L9.91885 9.03503L10.1932 9.24865L10.489 9.06575L10.226 8.6405ZM6.808 5.9795L7.11515 5.58497L6.7667 5.31369L6.45445 5.62595L6.808 5.9795ZM3.9795 8.808L3.62595 8.45445L3.31383 8.76656L3.58483 9.11497L3.9795 8.808ZM6.638 12.226L7.06359 12.4884L7.24577 12.193L7.03267 11.919L6.638 12.226ZM5.3 15.463L5.36196 15.9591L5.70697 15.9161L5.78668 15.5776L5.3 15.463ZM1 16L0.938039 15.5039L0.5 15.5586V16H1ZM1 20H0.5V20.4414L0.938039 20.4961L1 20ZM5.3 20.537L5.78667 20.4223L5.70694 20.0839L5.36196 20.0409L5.3 20.537ZM6.6405 23.774L7.03503 24.0812L7.24865 23.8068L7.06575 23.511L6.6405 23.774ZM3.9795 27.192L3.58497 26.8848L3.31369 27.2333L3.62595 27.5456L3.9795 27.192ZM6.808 30.0205L6.45445 30.3741L6.76656 30.6862L7.11497 30.4152L6.808 30.0205ZM10.226 27.362L10.4887 26.9366L10.1932 26.7541L9.91903 26.9673L10.226 27.362ZM13.1109 28.6131L12.9798 29.0957L13.5356 29.2466L13.607 28.6751L13.1109 28.6131ZM13.9374 22.0005L14.4336 22.0626L14.4768 21.7164L14.1669 21.5563L13.9374 22.0005ZM18.0626 22.0005L17.8331 21.5563L17.5232 21.7164L17.5664 22.0626L18.0626 22.0005ZM18.8892 28.6133L18.393 28.6753L18.4644 29.2465L19.02 29.0959L18.8892 28.6133ZM21.774 27.362L22.081 26.9673L21.8066 26.7539L21.511 26.9367L21.774 27.362ZM25.192 30.0205L24.885 30.4152L25.2334 30.6862L25.5456 30.3741L25.192 30.0205ZM28.0205 27.192L28.3741 27.5456L28.6862 27.2334L28.4152 26.885L28.0205 27.192ZM25.362 23.774L24.9366 23.5113L24.7541 23.8068L24.9673 24.081L25.362 23.774ZM26.7025 20.537L26.6405 20.0409L26.2958 20.0839L26.2159 20.4221L26.7025 20.537ZM31 20L31.062 20.4961L31.5 20.4414V20H31ZM26.6405 15.9591L30.938 16.4961L31.062 15.5039L26.7645 14.9669L26.6405 15.9591ZM24.9367 12.489C25.5267 13.4429 25.9586 14.4859 26.2158 15.5777L27.1892 15.3483C26.9072 14.1518 26.4338 13.0086 25.7873 11.963L24.9367 12.489ZM27.6258 8.50103L24.9673 11.919L25.7567 12.533L28.4152 9.11497L27.6258 8.50103ZM24.8384 6.33305L27.6669 9.16155L28.3741 8.45445L25.5456 5.62595L24.8384 6.33305ZM22.081 9.03267L25.499 6.37417L24.885 5.58483L21.467 8.24333L22.081 9.03267ZM18.4224 7.78668C19.5139 8.0438 20.557 8.47495 21.5116 9.06359L22.0364 8.21241C20.9906 7.56745 19.8477 7.09504 18.6516 6.81332L18.4224 7.78668ZM17.5039 3.06196L18.0409 7.36196L19.0331 7.23804L18.4961 2.93804L17.5039 3.06196ZM14 3.5H18V2.5H14V3.5ZM13.9591 7.36196L14.4961 3.06196L13.5039 2.93804L12.9669 7.23804L13.9591 7.36196ZM10.489 9.06575C11.4429 8.47582 12.4859 8.0439 13.5777 7.78667L13.3483 6.81333C12.1518 7.09525 11.0086 7.56866 9.96302 8.21525L10.489 9.06575ZM6.50085 6.37403L9.91885 9.03503L10.5332 8.24597L7.11515 5.58497L6.50085 6.37403ZM4.33305 9.16155L7.16155 6.33305L6.45445 5.62595L3.62595 8.45445L4.33305 9.16155ZM7.03267 11.919L4.37417 8.50103L3.58483 9.11497L6.24333 12.533L7.03267 11.919ZM5.78668 15.5776C6.0438 14.4861 6.47495 13.443 7.06359 12.4884L6.21241 11.9636C5.56745 13.0094 5.09504 14.1523 4.81332 15.3484L5.78668 15.5776ZM1.06196 16.4961L5.36196 15.9591L5.23804 14.9669L0.938039 15.5039L1.06196 16.4961ZM1.5 20V16H0.5V20H1.5ZM5.36196 20.0409L1.06196 19.5039L0.938039 20.4961L5.23804 21.0331L5.36196 20.0409ZM7.06575 23.511C6.47582 22.5571 6.0439 21.5141 5.78667 20.4223L4.81333 20.6517C5.09525 21.8482 5.56866 22.9914 6.21525 24.037L7.06575 23.511ZM4.37403 27.4992L7.03503 24.0812L6.24597 23.4668L3.58497 26.8848L4.37403 27.4992ZM7.16155 29.6669L4.33305 26.8384L3.62595 27.5456L6.45445 30.3741L7.16155 29.6669ZM9.91903 26.9673L6.50103 29.6258L7.11497 30.4152L10.533 27.7567L9.91903 26.9673ZM13.2419 28.1306C12.2721 27.8673 11.3447 27.4653 10.4887 26.9366L9.96326 27.7874C10.9012 28.3667 11.9173 28.8071 12.9798 29.0957L13.2419 28.1306ZM13.607 28.6751L14.4336 22.0626L13.4413 21.9385L12.6147 28.5511L13.607 28.6751ZM14.1669 21.5563C12.8788 20.8908 12 19.5476 12 18H11C11 19.9361 12.1006 21.6144 13.7079 22.4448L14.1669 21.5563ZM12 18C12 15.7909 13.7909 14 16 14V13C13.2386 13 11 15.2386 11 18H12ZM16 14C18.2091 14 20 15.7909 20 18H21C21 15.2386 18.7614 13 16 13V14ZM20 18C20 19.5476 19.1212 20.8908 17.8331 21.5563L18.2921 22.4448C19.8994 21.6144 21 19.9361 21 18H20ZM17.5664 22.0626L18.393 28.6753L19.3853 28.5513L18.5587 21.9385L17.5664 22.0626ZM21.511 26.9367C20.6554 27.4659 19.7282 27.8679 18.7584 28.1307L19.02 29.0959C20.0829 28.8078 21.0992 28.3672 22.037 27.7873L21.511 26.9367ZM25.499 29.6258L22.081 26.9673L21.467 27.7567L24.885 30.4152L25.499 29.6258ZM27.6669 26.8384L24.8384 29.6669L25.5456 30.3741L28.3741 27.5456L27.6669 26.8384ZM24.9673 24.081L27.6258 27.499L28.4152 26.885L25.7567 23.467L24.9673 24.081ZM26.2159 20.4221C25.958 21.5138 25.5261 22.5569 24.9366 23.5113L25.7874 24.0367C26.4333 22.991 26.9066 21.8481 27.1891 20.6519L26.2159 20.4221ZM30.938 19.5039L26.6405 20.0409L26.7645 21.0331L31.062 20.4961L30.938 19.5039ZM30.5 16V20H31.5V16H30.5Z" fill="#C7FDD1"/>
</g>
<defs>
<clipPath id="clip0_1377_3816">
<rect width="32" height="32" fill="white"/>
</clipPath>
</defs>
</svg>
