<svg width="64" height="64" viewBox="0 0 64 64" fill="none" xmlns="http://www.w3.org/2000/svg">
<path d="M54.5 54H9.5C7.567 54 6 55.567 6 57.5C6 59.433 7.567 61 9.5 61H54.5C56.433 61 58 59.433 58 57.5C58 55.567 56.433 54 54.5 54Z" stroke="#C7FDD1" stroke-miterlimit="10" stroke-linecap="square"/>
<path d="M26 38H18L6.604 55.533" stroke="#C7FDD1" stroke-miterlimit="10"/>
<path d="M57.402 55.543L46 38H38" stroke="#C7FDD1" stroke-miterlimit="10"/>
<path d="M44 9L32 3L20 9V24L32 30L44 24V9Z" fill="#B536FB" stroke="#C7FDD1" stroke-miterlimit="10"/>
<path d="M32 29V44" stroke="#C7FDD1" stroke-miterlimit="10" stroke-linecap="square"/>
<path d="M20 9L32 15L44 9" stroke="#C7FDD1" stroke-miterlimit="10"/>
<path d="M32 15V30" stroke="#C7FDD1" stroke-miterlimit="10"/>
</svg>
