<svg width="214" height="31" viewBox="0 0 214 31" fill="none" xmlns="http://www.w3.org/2000/svg">
<path d="M19.1891 0H13.2345L0 21.5156C1.64506 24.3511 4.00618 26.705 6.84692 28.3411C9.68765 29.9772 12.9089 30.838 16.1871 30.838C19.4653 30.838 22.6859 29.9772 25.5266 28.3411C28.3673 26.705 30.7285 24.3511 32.3735 21.5156L19.1891 0ZM7.93106 21.4404L16.2121 7.98115L24.4425 21.4655L7.93106 21.4404Z" fill="#1A0016"/>
<path d="M51.5385 5.32544H47.6428L39.9529 26.2681H43.7209L45.3098 21.5514H53.6149L55.2045 26.2681H59.0238L51.5385 5.32544ZM49.591 8.50392L52.6668 18.3986H46.4375L49.591 8.50392Z" fill="#1A0016"/>
<path d="M66.8942 11.1676C66.2355 11.3726 65.6466 11.7572 65.1939 12.2778C64.7412 12.7984 64.4425 13.4349 64.3309 14.1158V11.3472H61.0498V26.2915H64.4073V17.9864C64.3884 17.3526 64.519 16.7233 64.7878 16.149C65.0565 15.5748 65.4562 15.0712 65.9549 14.6796C66.4536 14.2881 67.0373 14.0196 67.659 13.8949C68.2806 13.7702 68.9227 13.793 69.5339 13.9618V11.065C68.6542 10.954 67.7627 10.9887 66.8942 11.1676Z" fill="#1A0016"/>
<path d="M109.113 19.6284C109.113 21.7047 108.318 23.7038 105.703 23.8833C103.089 24.0627 102.525 21.8587 102.525 19.8593V11.272H99.2695V21.1153C99.1775 21.8267 99.2436 22.5496 99.4635 23.2324C99.6833 23.9152 100.051 24.5407 100.541 25.0648C101.031 25.5889 101.631 25.9983 102.297 26.2638C102.963 26.5293 103.68 26.6442 104.396 26.6005C105.391 26.6978 106.394 26.5226 107.297 26.0936C108.2 25.6647 108.969 24.9982 109.523 24.1655V26.2419H112.676V11.2976H109.369L109.113 19.6284Z" fill="#1A0016"/>
<path d="M76.831 21.9994V13.8739H80.7273V11.0796H76.8566V6.77344H73.5755V11.2079H71.0122V14.0021H73.5755V22.1533C73.5755 24.5115 74.4985 26.5108 78.2922 26.5108C79.1543 26.5411 80.0165 26.4552 80.8555 26.2549V23.6915C80.2095 23.7785 79.5591 23.8293 78.9074 23.8449C78.6428 23.9028 78.3685 23.8977 78.1064 23.8292C77.8443 23.7607 77.6017 23.6312 77.3992 23.4512C77.1967 23.2713 77.0399 23.0458 76.9411 22.7935C76.8424 22.5412 76.8045 22.269 76.831 21.9994Z" fill="#1A0016"/>
<path d="M91.1947 10.9141C90.188 10.8358 89.1784 11.0326 88.2753 11.4842C87.3721 11.9358 86.6095 12.6251 86.0681 13.4774V5.37695H82.6843V26.3196H86.0681V18.3988C86.0681 16.1687 86.7598 14.118 89.5282 13.913C92.2965 13.7079 92.7066 15.7842 92.7066 17.7579V26.3453H96.193V16.271C96.2627 15.5808 96.1843 14.8839 95.9627 14.2265C95.7412 13.5691 95.3815 12.9665 94.9082 12.4592C94.435 11.952 93.859 11.5517 93.2186 11.2852C92.5781 11.0187 91.8881 10.8923 91.1947 10.9141Z" fill="#1A0016"/>
<path d="M121.75 11.1696C121.093 11.3773 120.506 11.7628 120.053 12.2829C119.601 12.8031 119.301 13.438 119.187 14.1178V11.3492H115.931V26.2935H119.289V17.9884C119.27 17.3547 119.4 16.7253 119.669 16.1511C119.938 15.5768 120.338 15.0732 120.836 14.6817C121.335 14.2902 121.919 14.0216 122.541 13.8969C123.163 13.7722 123.805 13.795 124.416 13.9639V11.067C123.528 10.9531 122.627 10.9879 121.75 11.1696Z" fill="#1A0016"/>
<path d="M132.299 26.1878V4.61135H138.787C142.801 4.61135 145.728 5.93913 145.728 10.1941V10.3148C145.728 12.2763 144.943 14.0265 142.469 14.8715C145.607 15.6259 146.784 17.2253 146.784 20.0317V20.1525C146.784 24.2263 144.008 26.1878 139.692 26.1878H132.299ZM134.864 14.0265H138.787C141.956 14.0265 143.163 12.8798 143.163 10.2242V10.1035C143.163 7.65921 141.744 6.66338 138.727 6.66338H134.864V14.0265ZM134.864 24.1358H139.632C142.77 24.1358 144.219 22.7477 144.219 20.1223V20.0016C144.219 17.346 142.74 16.0786 139.27 16.0786H134.864V24.1358Z" fill="#1A0016"/>
<path d="M156.744 26.4594C152.278 26.4594 149.11 23.321 149.11 18.4625V18.2211C149.11 13.4532 152.158 10.1337 156.503 10.1337C160.154 10.1337 163.595 12.3366 163.595 17.9797V18.7945H151.705C151.826 22.3855 153.546 24.3772 156.775 24.3772C159.219 24.3772 160.637 23.4719 160.969 21.6311H163.474C162.931 24.7997 160.305 26.4594 156.744 26.4594ZM151.795 16.7726H161.03C160.788 13.5135 159.098 12.2159 156.503 12.2159C153.938 12.2159 152.218 13.9662 151.795 16.7726Z" fill="#1A0016"/>
<path d="M166.834 26.1878V10.4053H169.339V12.91C170.063 11.4313 171.814 10.1337 174.409 10.1337C177.668 10.1337 179.961 11.9142 179.961 16.501V26.1878H177.457V16.32C177.457 13.5437 176.28 12.3065 173.745 12.3065C171.421 12.3065 169.339 13.7851 169.339 16.6218V26.1878H166.834Z" fill="#1A0016"/>
<path d="M190.815 26.4594C186.409 26.4594 183.089 23.3512 183.089 18.4625V18.2211C183.089 13.3928 186.53 10.1337 190.754 10.1337C194.044 10.1337 197.122 11.6426 197.604 15.6561H195.13C194.738 13.1514 192.927 12.2159 190.754 12.2159C187.888 12.2159 185.685 14.5094 185.685 18.2211V18.4625C185.685 22.3252 187.797 24.3772 190.845 24.3772C193.078 24.3772 195.1 23.0796 195.371 20.5146H197.695C197.363 23.9246 194.617 26.4594 190.815 26.4594Z" fill="#1A0016"/>
<path d="M200.873 26.1878V2.86108H203.378V12.91C204.102 11.4313 205.852 10.1337 208.447 10.1337C211.707 10.1337 214 11.9142 214 16.501V26.1878H211.495V16.32C211.495 13.5437 210.318 12.3065 207.784 12.3065C205.46 12.3065 203.378 13.7851 203.378 16.6218V26.1878H200.873Z" fill="#1A0016"/>
</svg>
