<svg width="32" height="32" viewBox="0 0 32 32" fill="none" xmlns="http://www.w3.org/2000/svg">
<g clip-path="url(#clip0_1377_3829)">
<path d="M25.3095 13.4835L25.3836 13.859L25.7655 13.8855C28.9751 14.1077 31.5 16.7478 31.5 20C31.5 23.4039 28.7372 26.1667 25.3333 26.1667H8C3.86281 26.1667 0.5 22.8039 0.5 18.6667V18.6666C0.499785 16.8188 1.18242 15.0361 2.41673 13.6611C3.65105 12.286 5.34997 11.4156 7.18705 11.2171L7.45315 11.1883L7.57679 10.951C9.16089 7.9095 12.3406 5.83333 16 5.83333L16.0001 5.83333C18.1978 5.83284 20.3274 6.59535 22.0253 7.99063C23.7232 9.3859 24.884 11.3274 25.3095 13.4835Z" fill="#B536FB" stroke="#C7FDD1"/>
</g>
<defs>
<clipPath id="clip0_1377_3829">
<rect width="32" height="32" fill="white"/>
</clipPath>
</defs>
</svg>
