<svg width="33" height="34" viewBox="0 0 33 34" fill="none" xmlns="http://www.w3.org/2000/svg">
<path d="M15.1697 8.18266L14.4246 1.11108" stroke="#C7FDD1" stroke-miterlimit="10"/>
<path d="M13.0595 17.4412C13.0595 17.4412 19.2293 26.5222 19.8059 28.3993C20.3826 30.2764 19.3283 32.2656 17.4512 32.8423C15.5741 33.4189 13.585 32.3647 13.0083 30.4876C12.4317 28.6105 13.0595 17.4412 13.0595 17.4412Z" fill="#B536FB" stroke="#C7FDD1" stroke-miterlimit="10" stroke-linecap="square"/>
<path d="M16.4081 1C9.82055 1 4.07112 4.61025 1 9.94771L6.96833 13.8271C8.75559 10.4334 12.3136 8.11112 16.4081 8.11112C20.5026 8.11112 24.0606 10.4334 25.8479 13.8271L31.8162 9.94771C28.7451 4.61025 22.9956 1 16.4081 1Z" fill="#B536FB" stroke="#C7FDD1" stroke-miterlimit="10" stroke-linecap="square"/>
</svg>
