<svg width="266" height="41" viewBox="0 0 266 41" fill="none" xmlns="http://www.w3.org/2000/svg">
<path d="M25.2235 0H17.3964L0 28.2816C2.16239 32.0089 5.26601 35.1029 9.00008 37.2536C12.7341 39.4042 16.9683 40.5357 21.2774 40.5357C25.5866 40.5357 29.8199 39.4042 33.554 37.2536C37.2881 35.1029 40.3917 32.0089 42.5541 28.2816L25.2235 0ZM10.4252 28.1828L21.3104 10.491L32.1289 28.2158L10.4252 28.1828Z" fill="#1A0016"/>
<path d="M67.3803 6.60938H62.3825L52.517 33.4771H57.351L59.3895 27.426H70.0442L72.0835 33.4771H76.9834L67.3803 6.60938ZM64.8818 10.6871L68.8279 23.3812H60.8362L64.8818 10.6871Z" fill="#1A0016"/>
<path d="M87.0809 14.1045C86.2358 14.3675 85.4804 14.8609 84.8996 15.5288C84.3188 16.1967 83.9355 17.0133 83.7924 17.8868V14.3349H79.583V33.5073H83.8904V22.8525C83.8661 22.0394 84.0337 21.232 84.3785 20.4953C84.7233 19.7585 85.236 19.1124 85.8758 18.6102C86.5157 18.1079 87.2645 17.7634 88.062 17.6034C88.8596 17.4434 89.6833 17.4727 90.4674 17.6893V13.9728C89.3388 13.8304 88.1951 13.875 87.0809 14.1045Z" fill="#1A0016"/>
<path d="M141.243 24.9591C141.243 27.6228 140.224 30.1876 136.869 30.4178C133.515 30.648 132.792 27.8204 132.792 25.2554V14.2385H128.615V26.8667C128.497 27.7794 128.582 28.7069 128.864 29.5828C129.146 30.4588 129.618 31.2613 130.246 31.9336C130.875 32.6059 131.644 33.1313 132.499 33.4719C133.354 33.8125 134.274 33.9598 135.192 33.9038C136.469 34.0286 137.755 33.8038 138.913 33.2535C140.072 32.7032 141.059 31.8482 141.769 30.7799V33.4438H145.814V14.2714H141.572L141.243 24.9591Z" fill="#1A0016"/>
<path d="M99.829 28.0007V17.5763H104.828V13.9915H99.8619V8.46704H95.6525V14.1561H92.364V17.7409H95.6525V28.1982C95.6525 31.2236 96.8366 33.7885 101.704 33.7885C102.81 33.8273 103.916 33.7172 104.992 33.4601V30.1716C104.163 30.2831 103.329 30.3484 102.493 30.3683C102.153 30.4426 101.801 30.4361 101.465 30.3482C101.129 30.2603 100.818 30.0942 100.558 29.8633C100.298 29.6324 100.097 29.3431 99.9703 29.0195C99.8436 28.6959 99.795 28.3465 99.829 28.0007Z" fill="#1A0016"/>
<path d="M118.256 13.7793C116.965 13.6788 115.669 13.9313 114.511 14.5107C113.352 15.09 112.374 15.9743 111.679 17.0678V6.67554H107.338V33.5433H111.679V23.3815C111.679 20.5205 112.567 17.8896 116.118 17.6266C119.67 17.3635 120.196 20.0272 120.196 22.5593V33.5762H124.669V20.6517C124.758 19.7662 124.657 18.8722 124.373 18.0288C124.089 17.1854 123.627 16.4123 123.02 15.7615C122.413 15.1108 121.674 14.5973 120.853 14.2554C120.031 13.9134 119.146 13.7513 118.256 13.7793Z" fill="#1A0016"/>
<path d="M157.456 14.1071C156.612 14.3735 155.859 14.8681 155.279 15.5354C154.699 16.2027 154.314 17.0173 154.167 17.8894V14.3375H149.991V33.5098H154.299V22.8551C154.275 22.042 154.441 21.2346 154.786 20.4979C155.131 19.7611 155.644 19.115 156.283 18.6128C156.923 18.1105 157.673 17.766 158.47 17.606C159.268 17.446 160.092 17.4753 160.876 17.6919V13.9754C159.736 13.8293 158.581 13.8739 157.456 14.1071Z" fill="#1A0016"/>
<path d="M181.909 34.6424C175.148 34.6424 172.705 30.9258 172.245 26.6074H175.219C175.608 29.6161 176.811 32.1646 181.909 32.1646C185.165 32.1646 187.678 30.2532 187.678 27.3861C187.678 24.519 186.368 23.3155 181.555 22.5368C176.245 21.7227 173.095 20.0591 173.095 15.5637C173.095 11.6701 176.457 8.69683 181.236 8.69683C186.298 8.69683 189.448 11.1746 189.943 15.6699H187.183C186.581 12.4842 184.74 11.1746 181.236 11.1746C177.767 11.1746 175.962 12.909 175.962 15.2806C175.962 17.7583 176.882 19.0326 182.05 19.8113C187.678 20.6962 190.651 22.3952 190.651 27.1737C190.651 31.4213 186.935 34.6424 181.909 34.6424Z" fill="#1A0016"/>
<path d="M194.65 34.3238V6.9624H197.587V18.7494C198.437 17.015 200.49 15.4929 203.534 15.4929C207.357 15.4929 210.047 17.5813 210.047 22.9616V34.3238H207.109V22.7492C207.109 19.4927 205.729 18.0415 202.755 18.0415C200.03 18.0415 197.587 19.7759 197.587 23.1032V34.3238H194.65Z" fill="#1A0016"/>
<path d="M216.229 11.9533C215.167 11.9533 214.282 11.0684 214.282 10.0065C214.282 8.9446 215.167 8.05969 216.229 8.05969C217.291 8.05969 218.176 8.9446 218.176 10.0065C218.176 11.0684 217.291 11.9533 216.229 11.9533ZM214.813 34.3238V15.8115H217.751V34.3238H214.813Z" fill="#1A0016"/>
<path d="M230.277 34.6424C225.039 34.6424 221.322 30.9612 221.322 25.2623V24.9792C221.322 19.3865 224.897 15.4929 229.994 15.4929C234.277 15.4929 238.312 18.0769 238.312 24.696V25.6517H224.366C224.508 29.8639 226.525 32.2 230.313 32.2C233.18 32.2 234.844 31.1381 235.233 28.979H238.171C237.534 32.6956 234.454 34.6424 230.277 34.6424ZM224.472 23.2801H235.304C235.021 19.4573 233.038 17.9353 229.994 17.9353C226.986 17.9353 224.968 19.9883 224.472 23.2801Z" fill="#1A0016"/>
<path d="M241.829 34.3238V6.9624H244.803V34.3238H241.829Z" fill="#1A0016"/>
<path d="M256.726 34.6424C251.877 34.6424 248.373 31.2089 248.373 25.4393V25.1562C248.373 19.4927 251.912 15.4929 257.009 15.4929C260.089 15.4929 262 16.9796 263.062 18.7848V6.9624H266V34.3238H263.062V31.1381C262 32.9434 259.416 34.6424 256.726 34.6424ZM257.045 32.2C260.478 32.2 263.168 29.9347 263.168 25.1915V24.9084C263.168 20.1653 260.903 17.9353 257.293 17.9353C253.611 17.9353 251.417 20.5192 251.417 25.0146V25.2977C251.417 29.9701 253.93 32.2 257.045 32.2Z" fill="#1A0016"/>
</svg>
