<svg width="329" height="365" viewBox="0 0 329 365" fill="none" xmlns="http://www.w3.org/2000/svg">
<rect x="317.877" y="291.756" width="93.9336" height="365.456" transform="rotate(139.923 317.877 291.756)" fill="#B536FB" stroke="#1A0016" stroke-width="2"/>
<path d="M9.93035 71.6614C9.04228 70.6059 8.80936 68.7931 9.58434 66.0804C10.3476 63.4087 12.0234 60.1197 14.5193 56.4211C19.503 49.0356 27.6237 40.2112 37.7088 31.7256C47.7939 23.2401 57.877 16.748 66.0059 13.1006C70.0768 11.2739 73.604 10.1852 76.3668 9.89005C79.172 9.59035 80.9183 10.1298 81.8064 11.1853C82.6945 12.2408 82.9274 14.0536 82.1524 16.7663C81.3892 19.438 79.7133 22.727 77.2175 26.4256C72.2337 33.8111 64.1131 42.6355 54.028 51.1211C43.9429 59.6066 33.8598 66.0987 25.7309 69.7461C21.66 71.5728 18.1328 72.6615 15.37 72.9566C12.5647 73.2563 10.8184 72.7169 9.93035 71.6614Z" fill="#B536FB" stroke="#1A0016" stroke-width="2"/>
<path d="M246.335 353.364C245.44 352.3 245.206 350.473 245.986 347.743C246.754 345.054 248.441 341.744 250.952 338.022C255.967 330.59 264.139 321.71 274.287 313.172C284.435 304.634 294.581 298.101 302.761 294.431C306.857 292.593 310.407 291.497 313.188 291.2C316.011 290.898 317.771 291.441 318.666 292.505C319.562 293.57 319.796 295.396 319.016 298.126C318.248 300.816 316.561 304.126 314.049 307.847C309.034 315.279 300.863 324.159 290.715 332.697C280.567 341.236 270.421 347.768 262.241 351.439C258.145 353.277 254.595 354.372 251.814 354.67C248.991 354.971 247.231 354.428 246.335 353.364Z" fill="#B536FB" stroke="#1A0016" stroke-width="2"/>
</svg>
