<svg width="205" height="186" viewBox="0 0 205 186" fill="none" xmlns="http://www.w3.org/2000/svg">
<path d="M73.6922 68.4818L61.6825 75.476C53.7735 80.0797 48.8741 89.7899 48.8247 103.63V104.677L60.8344 97.6826V96.6604C60.8838 82.8205 65.7831 73.0855 73.6922 68.4777V68.4818Z" fill="#B536FB" stroke="black" stroke-width="2"/>
<path d="M48.8247 104.681L66.7507 94.2045V93.1824C66.8001 79.3424 71.6995 69.6075 79.6085 65.0038L61.6825 75.4806C53.7735 80.0843 48.8741 89.7945 48.8247 103.634V104.681Z" fill="#B536FB" stroke="black" stroke-width="2"/>
<path d="M45.5393 7.24616L27.6133 17.6982C30.8205 15.8312 33.0603 14.7349 36.7163 13.7169L56.2562 2.76611C52.452 3.81297 42.9578 8.78758 39.6229 10.7288L45.5352 7.24616H45.5393Z" fill="#B536FB" stroke="black" stroke-width="2"/>
<path d="M36.7121 13.7168C52.279 9.2862 72.8687 12.1712 93.8579 24.3214C102.463 29.3001 110.792 35.4494 118.701 42.5177L118.824 42.493L136.474 31.9132C128.615 24.8943 120.335 18.7945 111.78 13.8405C90.8153 1.71505 71.4442 -1.52032 55.8773 2.86082L36.708 13.7127L36.7121 13.7168Z" fill="#C7FDD1" stroke="black" stroke-width="2"/>
<path d="M118.552 42.3936C136.931 58.8754 153.243 80.5338 165.055 103.684L165.253 104.08L183.278 93.8255C171.392 70.3495 155.125 48.5675 136.478 31.9126L118.952 42.1669L118.552 42.3894V42.3936Z" fill="#FFBF00" stroke="black" stroke-width="2"/>
<path d="M165.233 104.084C178.313 129.827 186.148 157.63 186.074 182.973V183.995L204 173.519V172.496C204.074 147.252 196.317 119.572 183.336 93.9039L165.237 104.084H165.233Z" fill="#FF7C00" stroke="black" stroke-width="2"/>
<path d="M93.8577 24.3213C42.7559 -5.2297 1.17704 17.9001 1 76.0006C1 76.351 1.04935 76.7219 1.04935 77.0722L48.8205 104.682V103.635C48.8946 75.5555 68.9862 64.4028 93.7055 78.6672C118.375 92.9317 138.343 127.235 138.245 155.343V156.365L186.065 184V182.978C186.238 124.873 144.935 53.827 93.8537 24.3255L93.8577 24.3213Z" fill="#B536FB" stroke="black" stroke-width="2"/>
<path d="M43.081 12.2003C17.8388 16.4578 1.12742 39.2125 1.00391 76.005C1.00391 76.3553 1.05326 76.7262 1.05326 77.0766L48.8244 104.686V103.64C48.8738 87.5328 55.49 77.0024 65.7828 73.6434L43.0769 12.2044L43.081 12.2003Z" fill="#B536FB" stroke="black" stroke-width="2"/>
<path d="M93.8579 24.3208C72.3212 11.8739 52.4767 8.76218 36.7122 13.7162L60.2374 76.3998C68.4429 70.6751 80.4073 70.9966 93.7097 78.6667C98.1356 81.2302 102.438 84.4656 106.469 88.1502L124.971 48.4191C115.246 38.8367 104.777 30.6184 93.862 24.3208H93.8579Z" fill="#C7FDD1" stroke="black" stroke-width="2"/>
<path d="M103.982 85.9621C116.638 96.6903 127.207 112.323 133.127 128.533L169.436 112.776C157.328 86.1145 139.472 61.0971 118.606 42.4515L103.982 85.9662V85.9621Z" fill="#FFBF00" stroke="black" stroke-width="2"/>
<path d="M131.682 124.769C135.861 134.978 138.298 145.529 138.249 155.339V156.361L186.069 183.995V182.973C186.143 157.63 178.333 129.822 165.253 104.084L131.682 124.769Z" fill="#FF7C00" stroke="black" stroke-width="2"/>
</svg>
