<svg width="134" height="22" viewBox="0 0 134 22" fill="none" xmlns="http://www.w3.org/2000/svg">
<path d="M13.2651 0H9.14879L0 15.1362C1.1372 17.131 2.7694 18.7869 4.73315 19.938C6.6969 21.089 8.92366 21.6945 11.1898 21.6945C13.456 21.6945 15.6823 21.089 17.6461 19.938C19.6098 18.7869 21.242 17.131 22.3792 15.1362L13.2651 0ZM5.4826 15.0833L11.2071 5.61473L16.8966 15.101L5.4826 15.0833Z" fill="#B536FB"/>
<path d="M35.629 3.74707H32.936L27.6201 18.4802H30.2249L31.3233 15.162H37.0644L38.1633 18.4802H40.8035L35.629 3.74707ZM34.2827 5.98313L36.409 12.944H32.1028L34.2827 5.98313Z" fill="white"/>
<path d="M46.2442 7.85748C45.7889 8.00172 45.3818 8.27224 45.0688 8.6385C44.7559 9.00475 44.5494 9.45256 44.4723 9.93153V7.98384H42.2041V18.4971H44.5251V12.6545C44.512 12.2087 44.6023 11.7659 44.7881 11.3619C44.9739 10.9579 45.2501 10.6036 45.5949 10.3282C45.9397 10.0528 46.3432 9.86386 46.7729 9.77612C47.2026 9.68837 47.6465 9.70446 48.069 9.82323V7.78528C47.4609 7.70717 46.8446 7.73162 46.2442 7.85748Z" fill="white"/>
<path d="M75.429 13.8094C75.429 15.2701 74.8796 16.6765 73.0722 16.8027C71.2647 16.9289 70.8749 15.3784 70.8749 13.9719V7.93066H68.6245V14.8554C68.5609 15.3559 68.6066 15.8645 68.7586 16.3448C68.9106 16.8252 69.165 17.2652 69.5036 17.6339C69.8421 18.0026 70.2568 18.2907 70.7175 18.4774C71.1781 18.6642 71.6735 18.745 72.1684 18.7143C72.8563 18.7827 73.5493 18.6595 74.1736 18.3577C74.7979 18.0559 75.3299 17.5871 75.7124 17.0013V18.462H77.8919V7.94871H75.6059L75.429 13.8094Z" fill="white"/>
<path d="M53.1132 15.4766V9.76028H55.8067V7.79454H53.131V4.76514H50.8628V7.88479H49.0908V9.85053H50.8628V15.5849C50.8628 17.2439 51.5009 18.6504 54.1234 18.6504C54.7193 18.6717 55.3153 18.6113 55.8953 18.4703V16.667C55.4487 16.7282 54.9991 16.764 54.5486 16.7749C54.3657 16.8156 54.1761 16.8121 53.9949 16.7639C53.8137 16.7157 53.646 16.6246 53.506 16.498C53.3661 16.3713 53.2576 16.2127 53.1894 16.0352C53.1211 15.8578 53.0949 15.6662 53.1132 15.4766Z" fill="white"/>
<path d="M63.0422 7.67895C62.3463 7.62387 61.6484 7.76234 61.0241 8.08003C60.3998 8.39771 59.8726 8.88262 59.4983 9.48224V3.78357H57.1592V18.5167H59.4983V12.9444C59.4983 11.3756 59.9765 9.93292 61.8902 9.78866C63.8039 9.6444 64.0874 11.1051 64.0874 12.4936V18.5348H66.4975V11.4475C66.5457 10.962 66.4915 10.4717 66.3383 10.0092C66.1851 9.54674 65.9365 9.12279 65.6094 8.76594C65.2822 8.4091 64.8841 8.12752 64.4413 7.94003C63.9985 7.75253 63.5216 7.66364 63.0422 7.67895Z" fill="white"/>
<path d="M84.164 7.8589C83.7096 8.00497 83.3039 8.27619 82.9912 8.64212C82.6785 9.00805 82.4711 9.45474 82.392 9.93295V7.98526H80.1416V18.4986H82.463V12.6559C82.4499 12.2101 82.5398 11.7673 82.7256 11.3633C82.9114 10.9593 83.1876 10.605 83.5324 10.3296C83.8772 10.0542 84.2811 9.86528 84.7108 9.77754C85.1406 9.68979 85.5844 9.70588 86.0069 9.82464V7.7867C85.393 7.70659 84.7701 7.73104 84.164 7.8589Z" fill="white"/>
<path d="M97.6941 18.7562C93.3759 18.7562 90.7266 15.7416 90.7266 11.0712V10.9013C90.7266 6.40067 93.6888 3.15257 97.7358 3.15257C100.844 3.15257 103.472 4.8297 103.785 8.12026H101.991C101.616 5.80625 100.302 4.6174 97.7566 4.6174C94.6692 4.6174 92.604 7.05879 92.604 10.8801V11.0499C92.604 14.9137 94.5232 17.2489 97.7358 17.2489C100.176 17.2489 101.866 15.9964 102.242 13.5338H103.931C103.41 17.0366 101.032 18.7562 97.6941 18.7562Z" fill="#B536FB"/>
<path d="M106.152 18.5651V2.15479H107.884V9.22419C108.385 8.18395 109.594 7.27108 111.388 7.27108C113.641 7.27108 115.227 8.52362 115.227 11.7505V18.5651H113.495V11.6231C113.495 9.67001 112.682 8.7996 110.93 8.7996C109.323 8.7996 107.884 9.83984 107.884 11.8354V18.5651H106.152Z" fill="#B536FB"/>
<path d="M120.936 18.7562C118.912 18.7562 117.306 17.7584 117.306 15.4869C117.306 12.9181 119.976 12.0477 122.771 12.0477H124.336V11.241C124.336 9.47894 123.668 8.73591 121.999 8.73591C120.497 8.73591 119.663 9.3728 119.496 10.7315H117.765C117.994 8.20518 119.976 7.27108 122.083 7.27108C124.169 7.27108 126.067 8.14149 126.067 11.241V18.5651H124.336V17.164C123.522 18.2042 122.542 18.7562 120.936 18.7562ZM121.102 17.3551C122.938 17.3551 124.336 16.3997 124.336 14.6802V13.3002H122.834C120.643 13.3002 119.037 13.8522 119.037 15.4869C119.037 16.6333 119.58 17.3551 121.102 17.3551Z" fill="#B536FB"/>
<path d="M132.368 18.7138C130.386 18.7138 129.427 17.5249 129.427 15.7841V8.94821H127.862V7.46215H129.427V4.93584H131.158V7.46215H133.703V8.94821H131.158V15.6143C131.158 16.697 131.638 17.2277 132.514 17.2277C133.056 17.2277 133.474 17.1428 133.849 16.9942V18.4802C133.495 18.6076 133.077 18.7138 132.368 18.7138Z" fill="#B536FB"/>
</svg>
