<svg width="64" height="64" viewBox="0 0 64 64" fill="none" xmlns="http://www.w3.org/2000/svg">
<path d="M32.0007 45.3334C31.9991 42.184 32.7951 39.0855 34.3142 36.3268C35.8333 33.568 38.0262 31.2388 40.6885 29.5562C43.3507 27.8737 46.3957 26.8926 49.5394 26.7044C52.6832 26.5162 55.8234 27.1271 58.6673 28.48V10.6667C58.6673 7.73337 56.2673 5.33337 53.334 5.33337H10.6673C7.73398 5.33337 5.33398 7.73337 5.33398 10.6667V58.6667L16.0007 48H32.0007C32.0007 47.5467 32.0273 47.12 32.0807 46.6667C32.0266 46.2243 31.9999 45.779 32.0007 45.3334Z" stroke="#C7FDD1"/>
<circle cx="46.5" cy="40.5" r="17" fill="#B536FB" stroke="#C7FDD1"/>
<path d="M43.7669 44.0222L40.2109 40.4662L39 41.6686L43.7669 46.4355L54 36.2024L52.7976 35L43.7669 44.0222Z" fill="#C7FDD1"/>
</svg>
