<svg width="64" height="64" viewBox="0 0 64 64" fill="none" xmlns="http://www.w3.org/2000/svg">
<path d="M16.2 44.2998H8V57.6248H16.2V44.2998Z" stroke="#C7FDD1" stroke-miterlimit="10" stroke-linecap="square"/>
<path d="M56.2 43.2749H48V57.6249H56.2V43.2749Z" stroke="#C7FDD1" stroke-miterlimit="10" stroke-linecap="square"/>
<path d="M36 26H28V58H36V26Z" fill="#B536FB" stroke="#C7FDD1" stroke-miterlimit="10" stroke-linecap="square"/>
<path d="M12.1 34.2C14.3644 34.2 16.2 32.3644 16.2 30.1C16.2 27.8356 14.3644 26 12.1 26C9.83563 26 8 27.8356 8 30.1C8 32.3644 9.83563 34.2 12.1 34.2Z" stroke="#C7FDD1" stroke-miterlimit="10"/>
<path d="M52.1 34.2C54.3644 34.2 56.2 32.3644 56.2 30.1C56.2 27.8356 54.3644 26 52.1 26C49.8356 26 48 27.8356 48 30.1C48 32.3644 49.8356 34.2 52.1 34.2Z" stroke="#C7FDD1" stroke-miterlimit="10"/>
<path d="M32.1 14.575C34.3644 14.575 36.2 12.7394 36.2 10.475C36.2 8.21063 34.3644 6.375 32.1 6.375C29.8356 6.375 28 8.21063 28 10.475C28 12.7394 29.8356 14.575 32.1 14.575Z" stroke="#C7FDD1" stroke-miterlimit="10"/>
<path d="M15.5 27.4998L29 13.4998" stroke="#C7FDD1" stroke-miterlimit="10"/>
<path d="M48.5 27.5L35 13.5" stroke="#C7FDD1" stroke-miterlimit="10"/>
</svg>
