<?xml version="1.0" encoding="utf-8"?>
<!-- Generator: Adobe Illustrator 27.8.1, SVG Export Plug-In . SVG Version: 6.00 Build 0)  -->
<svg version="1.1" id="Layer_1" xmlns="http://www.w3.org/2000/svg" xmlns:xlink="http://www.w3.org/1999/xlink" x="0px" y="0px"
	 viewBox="0 0 214 31" style="enable-background:new 0 0 214 31;" xml:space="preserve">
<style type="text/css">
	.st0{fill:#AC37F6;}
	.st1{fill:#FFFFFF;}
</style>
<path class="st0" d="M19.2,0h-6L0,21.5c1.6,2.8,4,5.2,6.8,6.8c2.8,1.6,6.1,2.5,9.3,2.5s6.5-0.9,9.3-2.5c2.8-1.6,5.2-4,6.8-6.8
	L19.2,0z M7.9,21.4L16.2,8l8.2,13.5L7.9,21.4z"/>
<g>
	<path class="st1" d="M51.5,5.3h-3.9L40,26.3h3.8l1.6-4.7h8.3l1.6,4.7H59L51.5,5.3z M49.6,8.5l3.1,9.9h-6.2L49.6,8.5z"/>
	<path class="st1" d="M66.9,11.2c-0.7,0.2-1.2,0.6-1.7,1.1c-0.5,0.5-0.8,1.2-0.9,1.8v-2.8H61v14.9h3.4V18c0-0.6,0.1-1.3,0.4-1.8
		c0.3-0.6,0.7-1.1,1.2-1.5c0.5-0.4,1.1-0.7,1.7-0.8c0.6-0.1,1.3-0.1,1.9,0.1v-2.9C68.7,11,67.8,11,66.9,11.2z"/>
	<path class="st1" d="M109.1,19.6c0,2.1-0.8,4.1-3.4,4.3c-2.6,0.2-3.2-2-3.2-4v-8.6h-3.3v9.8c-0.1,0.7,0,1.4,0.2,2.1
		c0.2,0.7,0.6,1.3,1.1,1.8s1.1,0.9,1.8,1.2c0.7,0.3,1.4,0.4,2.1,0.3c1,0.1,2-0.1,2.9-0.5c0.9-0.4,1.7-1.1,2.2-1.9v2.1h3.2V11.3h-3.3
		L109.1,19.6z"/>
	<path class="st1" d="M76.8,22v-8.1h3.9v-2.8h-3.9V6.8h-3.3v4.4H71V14h2.6v8.2c0,2.4,0.9,4.4,4.7,4.4c0.9,0,1.7-0.1,2.6-0.3v-2.6
		c-0.6,0.1-1.3,0.1-1.9,0.2c-0.3,0.1-0.5,0.1-0.8,0c-0.3-0.1-0.5-0.2-0.7-0.4c-0.2-0.2-0.4-0.4-0.5-0.7C76.8,22.5,76.8,22.3,76.8,22
		z"/>
	<path class="st1" d="M91.2,10.9c-1-0.1-2,0.1-2.9,0.6c-0.9,0.5-1.7,1.1-2.2,2V5.4h-3.4v20.9h3.4v-7.9c0-2.2,0.7-4.3,3.5-4.5
		c2.8-0.2,3.2,1.9,3.2,3.8v8.6h3.5V16.3c0.1-0.7,0-1.4-0.2-2c-0.2-0.7-0.6-1.3-1.1-1.8c-0.5-0.5-1-0.9-1.7-1.2
		C92.6,11,91.9,10.9,91.2,10.9z"/>
	<path class="st1" d="M121.8,11.2c-0.7,0.2-1.2,0.6-1.7,1.1c-0.5,0.5-0.8,1.2-0.9,1.8v-2.8h-3.3v14.9h3.4V18c0-0.6,0.1-1.3,0.4-1.8
		c0.3-0.6,0.7-1.1,1.2-1.5c0.5-0.4,1.1-0.7,1.7-0.8c0.6-0.1,1.3-0.1,1.9,0.1v-2.9C123.5,11,122.6,11,121.8,11.2z"/>
</g>
<g>
	<path class="st0" d="M132.3,26.2V4.6h6.5c4,0,6.9,1.3,6.9,5.6v0.1c0,2-0.8,3.7-3.3,4.6c3.1,0.8,4.3,2.4,4.3,5.2v0.1
		c0,4.1-2.8,6-7.1,6H132.3z M134.9,14h3.9c3.2,0,4.4-1.1,4.4-3.8v-0.1c0-2.4-1.4-3.4-4.4-3.4h-3.9V14z M134.9,24.1h4.8
		c3.1,0,4.6-1.4,4.6-4V20c0-2.7-1.5-3.9-4.9-3.9h-4.4V24.1z"/>
	<path class="st0" d="M156.7,26.5c-4.5,0-7.6-3.1-7.6-8v-0.2c0-4.8,3-8.1,7.4-8.1c3.7,0,7.1,2.2,7.1,7.8v0.8h-11.9
		c0.1,3.6,1.8,5.6,5.1,5.6c2.4,0,3.9-0.9,4.2-2.7h2.5C162.9,24.8,160.3,26.5,156.7,26.5z M151.8,16.8h9.2c-0.2-3.3-1.9-4.6-4.5-4.6
		C153.9,12.2,152.2,14,151.8,16.8z"/>
	<path class="st0" d="M166.8,26.2V10.4h2.5v2.5c0.7-1.5,2.5-2.8,5.1-2.8c3.3,0,5.6,1.8,5.6,6.4v9.7h-2.5v-9.9c0-2.8-1.2-4-3.7-4
		c-2.3,0-4.4,1.5-4.4,4.3v9.6H166.8z"/>
	<path class="st0" d="M190.8,26.5c-4.4,0-7.7-3.1-7.7-8v-0.2c0-4.8,3.4-8.1,7.7-8.1c3.3,0,6.4,1.5,6.9,5.5h-2.5
		c-0.4-2.5-2.2-3.4-4.4-3.4c-2.9,0-5.1,2.3-5.1,6v0.2c0,3.9,2.1,5.9,5.2,5.9c2.2,0,4.3-1.3,4.5-3.9h2.3
		C197.4,23.9,194.6,26.5,190.8,26.5z"/>
	<path class="st0" d="M200.9,26.2V2.9h2.5v10c0.7-1.5,2.5-2.8,5.1-2.8c3.3,0,5.6,1.8,5.6,6.4v9.7h-2.5v-9.9c0-2.8-1.2-4-3.7-4
		c-2.3,0-4.4,1.5-4.4,4.3v9.6H200.9z"/>
</g>
</svg>
