<svg width="250" height="41" viewBox="0 0 250 41" fill="none" xmlns="http://www.w3.org/2000/svg">
<path d="M24.7763 0.239746H17.088L0 28.5109C2.12405 32.2368 5.17265 35.3297 8.8405 37.4795C12.5084 39.6294 16.6675 40.7604 20.9002 40.7604C25.1329 40.7604 29.2912 39.6294 32.9591 37.4795C36.6269 35.3297 39.6755 32.2368 41.7996 28.5109L24.7763 0.239746ZM10.2403 28.4122L20.9325 10.7269L31.5593 28.4451L10.2403 28.4122Z" fill="#1A0016"/>
<path d="M66.5448 7.23755H61.5149L51.5859 34.7559H56.451L58.5026 28.5582H69.2259L71.2782 34.7559H76.2096L66.5448 7.23755ZM64.0303 11.414L68.0017 24.4155H59.9587L64.0303 11.414Z" fill="#1A0016"/>
<path d="M86.3723 14.9146C85.5217 15.184 84.7614 15.6893 84.1769 16.3734C83.5924 17.0575 83.2067 17.8939 83.0626 18.7885V15.1506H78.8262V34.7872H83.1612V23.8744C83.1368 23.0417 83.3055 22.2147 83.6525 21.4601C83.9995 20.7056 84.5155 20.0438 85.1594 19.5294C85.8034 19.0149 86.557 18.6621 87.3597 18.4982C88.1624 18.3343 88.9914 18.3643 89.7805 18.5862V14.7797C88.6447 14.6339 87.4936 14.6795 86.3723 14.9146Z" fill="#1A0016"/>
<path d="M140.882 26.0312C140.882 28.7594 139.856 31.3863 136.48 31.6221C133.104 31.8578 132.376 28.9618 132.376 26.3347V15.051H128.173V27.985C128.054 28.9198 128.14 29.8697 128.424 30.7669C128.707 31.664 129.183 32.486 129.815 33.1746C130.447 33.8632 131.222 34.4013 132.082 34.7501C132.943 35.099 133.868 35.2499 134.792 35.1925C136.077 35.3204 137.372 35.0901 138.538 34.5265C139.704 33.9628 140.697 33.0871 141.412 31.9929V34.7213H145.482V15.0847H141.213L140.882 26.0312Z" fill="#1A0016"/>
<path d="M99.2005 29.146V18.4693H104.231V14.7977H99.2336V9.1394H94.9972V14.9662H91.6875V18.6378H94.9972V29.3483C94.9972 32.447 96.1889 35.074 101.087 35.074C102.2 35.1138 103.314 35.001 104.397 34.7377V31.3695C103.563 31.4838 102.723 31.5506 101.882 31.571C101.54 31.6471 101.186 31.6405 100.847 31.5505C100.509 31.4605 100.196 31.2903 99.9342 31.0538C99.6727 30.8173 99.4702 30.521 99.3427 30.1895C99.2152 29.8581 99.1663 29.5003 99.2005 29.146Z" fill="#1A0016"/>
<path d="M117.748 14.5804C116.448 14.4775 115.145 14.7362 113.979 15.3295C112.813 15.9229 111.828 16.8286 111.129 17.9486V7.30469H106.76V34.8231H111.129V24.4152C111.129 21.4849 112.022 18.7904 115.596 18.5209C119.171 18.2514 119.7 20.9797 119.7 23.5731V34.8568H124.202V21.6193C124.292 20.7124 124.19 19.7967 123.904 18.9329C123.618 18.0691 123.154 17.2772 122.543 16.6107C121.932 15.9442 121.188 15.4183 120.361 15.068C119.534 14.7178 118.643 14.5518 117.748 14.5804Z" fill="#1A0016"/>
<path d="M157.199 14.9173C156.35 15.1901 155.592 15.6966 155.008 16.3801C154.424 17.0636 154.037 17.8979 153.889 18.7911V15.1533H149.686V34.7899H154.021V23.8771C153.997 23.0443 154.165 22.2174 154.512 21.4628C154.859 20.7082 155.375 20.0465 156.019 19.532C156.663 19.0176 157.417 18.6647 158.22 18.5008C159.023 18.337 159.852 18.367 160.641 18.5888V14.7824C159.494 14.6328 158.331 14.6784 157.199 14.9173Z" fill="#1A0016"/>
<path d="M182.471 35.2718C174.405 35.2718 169.457 29.6412 169.457 20.9178V20.6005C169.457 12.1943 174.99 6.12756 182.549 6.12756C188.354 6.12756 193.264 9.26007 193.848 15.4061H190.497C189.796 11.0841 187.341 8.86355 182.588 8.86355C176.821 8.86355 172.964 13.4235 172.964 20.5609V20.8781C172.964 28.0948 176.548 32.4565 182.549 32.4565C187.107 32.4565 190.263 30.117 190.965 25.5174H194.121C193.147 32.06 188.705 35.2718 182.471 35.2718Z" fill="#1A0016"/>
<path d="M198.269 34.9149V4.26392H201.503V17.468C202.438 15.5251 204.698 13.8201 208.049 13.8201C212.257 13.8201 215.218 16.1595 215.218 22.1866V34.9149H211.984V21.9487C211.984 18.3007 210.465 16.675 207.192 16.675C204.192 16.675 201.503 18.6179 201.503 22.3452V34.9149H198.269Z" fill="#1A0016"/>
<path d="M225.881 35.2718C222.101 35.2718 219.101 33.4081 219.101 29.1654C219.101 24.3675 224.089 22.7418 229.31 22.7418H232.232V21.235C232.232 17.9439 230.985 16.556 227.868 16.556C225.063 16.556 223.504 17.7456 223.192 20.2833H219.958C220.387 15.5647 224.089 13.8201 228.024 13.8201C231.92 13.8201 235.466 15.4458 235.466 21.235V34.9149H232.232V32.2979C230.712 34.2408 228.881 35.2718 225.881 35.2718ZM226.193 32.6548C229.621 32.6548 232.232 30.8704 232.232 27.6586V25.0812H229.427C225.335 25.0812 222.335 26.1122 222.335 29.1654C222.335 31.3066 223.348 32.6548 226.193 32.6548Z" fill="#1A0016"/>
<path d="M247.234 35.1925C243.533 35.1925 241.74 32.972 241.74 29.7205V16.9526H238.818V14.1769H241.74V9.45833H244.974V14.1769H249.728V16.9526H244.974V29.4033C244.974 31.4255 245.871 32.4168 247.507 32.4168C248.52 32.4168 249.299 32.2582 250.001 31.9807V34.7563C249.338 34.9942 248.559 35.1925 247.234 35.1925Z" fill="#1A0016"/>
</svg>
