<svg width="64" height="64" viewBox="0 0 64 64" fill="none" xmlns="http://www.w3.org/2000/svg">
<path d="M32.5 9.80554V9.30554H31.5V9.80554H32.5ZM31.5 58.1111C31.5 58.3872 31.7239 58.6111 32 58.6111C32.2761 58.6111 32.5 58.3872 32.5 58.1111H31.5ZM31.5 9.80554V58.1111H32.5V9.80554H31.5Z" fill="#C7FDD1"/>
<path d="M3.27734 42.4445L12.4162 22.9525L21.5551 42.4445" stroke="#C7FDD1" stroke-linecap="round" stroke-linejoin="round"/>
<path d="M12.417 51.5833C13.6254 51.6134 14.8273 51.3976 15.9496 50.949C17.072 50.5004 18.0915 49.8283 18.9462 48.9736C19.8009 48.1189 20.473 47.0994 20.9216 45.9771C21.3702 44.8547 21.586 43.6528 21.5559 42.4445H3.27816C3.24806 43.6528 3.46387 44.8547 3.91249 45.9771C4.36111 47.0994 5.03317 48.1189 5.88787 48.9736C6.74257 49.8283 7.76206 50.5004 8.88445 50.949C10.0068 51.3976 11.2087 51.6134 12.417 51.5833Z" fill="#B536FB" stroke="#C7FDD1" stroke-linecap="round" stroke-linejoin="round"/>
<path d="M60.7221 26.7778L51.5832 6.96729L42.4443 26.7778" stroke="#C7FDD1" stroke-linecap="round" stroke-linejoin="round"/>
<path d="M51.5831 35.9167C50.3747 35.9468 49.1729 35.731 48.0505 35.2824C46.9281 34.8338 45.9086 34.1617 45.0539 33.307C44.1992 32.4523 43.5271 31.4328 43.0785 30.3104C42.6299 29.188 42.4141 27.9862 42.4442 26.7778H60.722C60.752 27.9862 60.5362 29.188 60.0876 30.3104C59.639 31.4328 58.9669 32.4523 58.1122 33.307C57.2575 34.1617 56.238 34.8338 55.1157 35.2824C53.9933 35.731 52.7914 35.9468 51.5831 35.9167Z" fill="#B536FB" stroke="#C7FDD1" stroke-linecap="round" stroke-linejoin="round"/>
<path d="M35.7104 12.986L35.2483 13.1769L35.6302 14.1011L36.0923 13.9102L35.7104 12.986ZM54.3858 6.35102C54.641 6.24556 54.7624 5.95318 54.6569 5.69797C54.5515 5.44276 54.2591 5.32136 54.0039 5.42681L54.3858 6.35102ZM36.0923 13.9102L54.3858 6.35102L54.0039 5.42681L35.7104 12.986L36.0923 13.9102Z" fill="#C7FDD1"/>
<path d="M6.86618 24.6562L6.40268 24.8437L6.77774 25.7707L7.24124 25.5832L6.86618 24.6562ZM36.0888 13.9115C36.3448 13.8079 36.4683 13.5165 36.3648 13.2605C36.2612 13.0045 35.9697 12.8809 35.7137 12.9845L36.0888 13.9115ZM7.24124 25.5832L36.0888 13.9115L35.7137 12.9845L6.86618 24.6562L7.24124 25.5832Z" fill="#C7FDD1"/>
<path d="M20.25 58.1111H43.75" stroke="#C7FDD1" stroke-linecap="square" stroke-linejoin="round"/>
</svg>
