<svg width="64" height="64" viewBox="0 0 64 64" fill="none" xmlns="http://www.w3.org/2000/svg">
<path d="M7.20508 7.19446H56.8162V51.5833H7.20508V7.19446Z" stroke="#C7FDD1" stroke-linecap="round" stroke-linejoin="round"/>
<path d="M29.3994 59.4167C29.3994 59.7595 29.467 60.0991 29.5982 60.4159C29.7294 60.7327 29.9217 61.0205 30.1642 61.263C30.4067 61.5054 30.6945 61.6978 31.0113 61.829C31.3281 61.9602 31.6676 62.0278 32.0105 62.0278C32.3534 62.0278 32.693 61.9602 33.0098 61.829C33.3265 61.6978 33.6144 61.5054 33.8569 61.263C34.0993 61.0205 34.2917 60.7327 34.4229 60.4159C34.5541 60.0991 34.6216 59.7595 34.6216 59.4167C34.6216 59.0738 34.5541 58.7342 34.4229 58.4174C34.2917 58.1006 34.0993 57.8128 33.8569 57.5703C33.6144 57.3279 33.3265 57.1355 33.0098 57.0043C32.693 56.8731 32.3534 56.8055 32.0105 56.8055C31.6676 56.8055 31.3281 56.8731 31.0113 57.0043C30.6945 57.1355 30.4067 57.3279 30.1642 57.5703C29.9217 57.8128 29.7294 58.1006 29.5982 58.4174C29.467 58.7342 29.3994 59.0738 29.3994 59.4167Z" stroke="#C7FDD1" stroke-linecap="round" stroke-linejoin="round"/>
<path d="M32.0107 51.5834V56.8056" stroke="#C7FDD1" stroke-linecap="round" stroke-linejoin="round"/>
<path d="M13.7324 43.75H50.288" stroke="#C7FDD1" stroke-linecap="round" stroke-linejoin="round"/>
<path d="M62.0282 4.58328C62.0282 5.27579 61.7531 5.93994 61.2634 6.42961C60.7738 6.91929 60.1096 7.19439 59.4171 7.19439H4.58377C3.89126 7.19439 3.22711 6.91929 2.73743 6.42961C2.24775 5.93994 1.97266 5.27579 1.97266 4.58328C1.97266 3.89077 2.24775 3.22662 2.73743 2.73694C3.22711 2.24727 3.89126 1.97217 4.58377 1.97217H59.4171C59.76 1.97217 60.0995 2.03971 60.4163 2.17093C60.7331 2.30215 61.021 2.49448 61.2634 2.73694C61.5059 2.97941 61.6982 3.26726 61.8295 3.58405C61.9607 3.90084 62.0282 4.24038 62.0282 4.58328Z" fill="#B536FB" stroke="#C7FDD1" stroke-linecap="round" stroke-linejoin="round"/>
<path d="M4.59375 51.5834H59.4271" stroke="#C7FDD1" stroke-linecap="round" stroke-linejoin="round"/>
<path d="M16.3329 33.3055H21.5551C21.7266 33.3055 21.8963 33.3393 22.0547 33.4049C22.2131 33.4705 22.3571 33.5667 22.4783 33.6879C22.5995 33.8092 22.6957 33.9531 22.7613 34.1115C22.8269 34.2699 22.8607 34.4397 22.8607 34.6111V43.75H15.0273V34.6111C15.0273 34.4397 15.0611 34.2699 15.1267 34.1115C15.1923 33.9531 15.2885 33.8092 15.4097 33.6879C15.531 33.5667 15.6749 33.4705 15.8333 33.4049C15.9917 33.3393 16.1615 33.3055 16.3329 33.3055Z" stroke="#C7FDD1" stroke-linecap="round" stroke-linejoin="round"/>
<path d="M29.3886 25.4722H34.6108C34.957 25.4722 35.2891 25.6097 35.534 25.8546C35.7788 26.0994 35.9163 26.4315 35.9163 26.7777V43.7499H28.083V26.7777C28.083 26.4315 28.2206 26.0994 28.4654 25.8546C28.7102 25.6097 29.0423 25.4722 29.3886 25.4722Z" fill="#B536FB" stroke="#C7FDD1" stroke-linecap="round" stroke-linejoin="round"/>
<path d="M42.4442 17.6389H47.6665C48.0127 17.6389 48.3448 17.7765 48.5896 18.0213C48.8345 18.2661 48.972 18.5982 48.972 18.9445V43.75H41.1387V18.9445C41.1387 18.5982 41.2762 18.2661 41.5211 18.0213C41.7659 17.7765 42.098 17.6389 42.4442 17.6389Z" stroke="#C7FDD1" stroke-linecap="round" stroke-linejoin="round"/>
</svg>
