<svg width="32" height="32" viewBox="0 0 32 32" fill="none" xmlns="http://www.w3.org/2000/svg">
<g clip-path="url(#clip0_1887_5979)">
<path d="M3.60254 3.59723H28.4081V25.7917H3.60254V3.59723Z" stroke="#C7FDD1" stroke-linecap="round" stroke-linejoin="round"/>
<path d="M14.6992 29.7083C14.6992 29.8798 14.733 30.0495 14.7986 30.2079C14.8642 30.3663 14.9604 30.5103 15.0816 30.6315C15.2028 30.7527 15.3468 30.8489 15.5052 30.9145C15.6636 30.9801 15.8333 31.0139 16.0048 31.0139C16.1762 31.0139 16.346 30.9801 16.5044 30.9145C16.6628 30.8489 16.8067 30.7527 16.9279 30.6315C17.0492 30.5103 17.1453 30.3663 17.211 30.2079C17.2766 30.0495 17.3103 29.8798 17.3103 29.7083C17.3103 29.5369 17.2766 29.3671 17.211 29.2087C17.1453 29.0503 17.0492 28.9064 16.9279 28.7852C16.8067 28.6639 16.6628 28.5678 16.5044 28.5021C16.346 28.4365 16.1762 28.4028 16.0048 28.4028C15.8333 28.4028 15.6636 28.4365 15.5052 28.5021C15.3468 28.5678 15.2028 28.6639 15.0816 28.7852C14.9604 28.9064 14.8642 29.0503 14.7986 29.2087C14.733 29.3671 14.6992 29.5369 14.6992 29.7083Z" stroke="#C7FDD1" stroke-linecap="round" stroke-linejoin="round"/>
<path d="M16.0049 25.7917V28.4028" stroke="#C7FDD1" stroke-linecap="round" stroke-linejoin="round"/>
<path d="M6.86621 21.875H25.144" stroke="#C7FDD1" stroke-linecap="round" stroke-linejoin="round"/>
<path d="M31.0141 2.29167C31.0141 2.63792 30.8766 2.97 30.6317 3.21484C30.3869 3.45968 30.0548 3.59723 29.7086 3.59723H2.29188C1.94563 3.59723 1.61356 3.45968 1.36872 3.21484C1.12388 2.97 0.986328 2.63792 0.986328 2.29167C0.986328 1.94542 1.12388 1.61334 1.36872 1.3685C1.61356 1.12366 1.94563 0.986115 2.29188 0.986115H29.7086C29.88 0.986115 30.0498 1.01988 30.2082 1.08549C30.3666 1.1511 30.5105 1.24727 30.6317 1.3685C30.7529 1.48973 30.8491 1.63366 30.9147 1.79206C30.9803 1.95045 31.0141 2.12022 31.0141 2.29167Z" stroke="#C7FDD1" stroke-linecap="round" stroke-linejoin="round"/>
<path d="M2.29688 25.7917H29.7135" stroke="#C7FDD1" stroke-linecap="round" stroke-linejoin="round"/>
<path d="M8.16645 16.6528H10.7776C10.8633 16.6528 10.9482 16.6697 11.0274 16.7025C11.1066 16.7353 11.1785 16.7834 11.2391 16.844C11.2998 16.9046 11.3478 16.9765 11.3806 17.0557C11.4135 17.1349 11.4303 17.2198 11.4303 17.3055V21.875H7.51367V17.3055C7.51367 17.2198 7.53056 17.1349 7.56336 17.0557C7.59617 16.9765 7.64425 16.9046 7.70487 16.844C7.76548 16.7834 7.83744 16.7353 7.91664 16.7025C7.99584 16.6697 8.08073 16.6528 8.16645 16.6528Z" stroke="#C7FDD1" stroke-linecap="round" stroke-linejoin="round"/>
<path d="M14.6948 12.7361H17.3059C17.479 12.7361 17.645 12.8049 17.7675 12.9273C17.8899 13.0497 17.9587 13.2158 17.9587 13.3889V21.875H14.042V13.3889C14.042 13.2158 14.1108 13.0497 14.2332 12.9273C14.3556 12.8049 14.5216 12.7361 14.6948 12.7361Z" stroke="#C7FDD1" stroke-linecap="round" stroke-linejoin="round"/>
<path d="M21.2221 8.81944H23.8332C24.0064 8.81944 24.1724 8.88822 24.2948 9.01064C24.4172 9.13306 24.486 9.29909 24.486 9.47222V21.875H20.5693V9.47222C20.5693 9.29909 20.6381 9.13306 20.7605 9.01064C20.883 8.88822 21.049 8.81944 21.2221 8.81944Z" stroke="#C7FDD1" stroke-linecap="round" stroke-linejoin="round"/>
</g>
<defs>
<clipPath id="clip0_1887_5979">
<rect width="32" height="32" fill="white"/>
</clipPath>
</defs>
</svg>
