<svg width="32" height="32" viewBox="0 0 32 32" fill="none" xmlns="http://www.w3.org/2000/svg">
<path d="M16.5 4.90277V4.40277H15.5V4.90277H16.5ZM15.5 29.0555C15.5 29.3317 15.7239 29.5555 16 29.5555C16.2761 29.5555 16.5 29.3317 16.5 29.0555H15.5ZM15.5 4.90277V29.0555H16.5V4.90277H15.5Z" fill="#C7FDD1"/>
<path d="M1.63867 21.2222L6.20812 11.4763L10.7776 21.2222" stroke="#C7FDD1" stroke-linecap="round" stroke-linejoin="round"/>
<path d="M6.20852 25.7917C6.8127 25.8067 7.41363 25.6988 7.97482 25.4745C8.53602 25.2502 9.04576 24.9142 9.47311 24.4868C9.90046 24.0595 10.2365 23.5497 10.4608 22.9885C10.6851 22.4273 10.793 21.8264 10.778 21.2222H1.63908C1.62403 21.8264 1.73194 22.4273 1.95625 22.9885C2.18055 23.5497 2.51659 24.0595 2.94393 24.4868C3.37128 24.9142 3.88103 25.2502 4.44222 25.4745C5.00342 25.6988 5.60435 25.8067 6.20852 25.7917Z" stroke="#C7FDD1" stroke-linecap="round" stroke-linejoin="round"/>
<path d="M30.3615 13.3889L25.7921 3.48364L21.2227 13.3889" stroke="#C7FDD1" stroke-linecap="round" stroke-linejoin="round"/>
<path d="M25.7915 17.9583C25.1874 17.9734 24.5864 17.8655 24.0252 17.6412C23.464 17.4169 22.9543 17.0808 22.5269 16.6535C22.0996 16.2261 21.7636 15.7164 21.5393 15.1552C21.3149 14.594 21.207 13.9931 21.2221 13.3889H30.361C30.376 13.9931 30.2681 14.594 30.0438 15.1552C29.8195 15.7164 29.4835 16.2261 29.0561 16.6535C28.6288 17.0808 28.119 17.4169 27.5578 17.6412C26.9966 17.8655 26.3957 17.9734 25.7915 17.9583Z" stroke="#C7FDD1" stroke-linecap="round" stroke-linejoin="round"/>
<path d="M17.7592 6.26192L17.2971 6.45287L17.679 7.37708L18.1411 7.18613L17.7592 6.26192ZM27.2879 3.40655C27.5431 3.30109 27.6645 3.00871 27.559 2.75349C27.4536 2.49828 27.1612 2.37688 26.906 2.48234L27.2879 3.40655ZM18.1411 7.18613L27.2879 3.40655L26.906 2.48234L17.7592 6.26192L18.1411 7.18613Z" fill="#C7FDD1"/>
<path d="M3.33884 12.0964L2.87534 12.2839L3.2504 13.2109L3.7139 13.0234L3.33884 12.0964ZM18.1377 7.18753C18.3937 7.08396 18.5172 6.79248 18.4136 6.5365C18.3101 6.28051 18.0186 6.15696 17.7626 6.26053L18.1377 7.18753ZM3.7139 13.0234L18.1377 7.18753L17.7626 6.26053L3.33884 12.0964L3.7139 13.0234Z" fill="#C7FDD1"/>
<path d="M10.125 29.0556H21.875" stroke="#C7FDD1" stroke-linecap="square" stroke-linejoin="round"/>
</svg>
