<svg width="32" height="32" viewBox="0 0 32 32" fill="none" xmlns="http://www.w3.org/2000/svg">
<path d="M27.25 27H4.75C3.7835 27 3 27.7835 3 28.75C3 29.7165 3.7835 30.5 4.75 30.5H27.25C28.2165 30.5 29 29.7165 29 28.75C29 27.7835 28.2165 27 27.25 27Z" stroke="#C7FDD1" stroke-miterlimit="10" stroke-linecap="square"/>
<path d="M13.0007 19H9.00073L3.30273 27.7665" stroke="#C7FDD1" stroke-miterlimit="10"/>
<path d="M28.701 27.7715L23 19H19" stroke="#C7FDD1" stroke-miterlimit="10"/>
<path d="M22 4.5L16 1.5L10 4.5V12L16 15L22 12V4.5Z" stroke="#C7FDD1" stroke-miterlimit="10"/>
<path d="M16 14.5V22" stroke="#C7FDD1" stroke-miterlimit="10" stroke-linecap="square"/>
<path d="M10 4.5L16 7.5L22 4.5" stroke="#C7FDD1" stroke-miterlimit="10"/>
<path d="M16 7.5V15" stroke="#C7FDD1" stroke-miterlimit="10"/>
</svg>
