<svg width="32" height="32" viewBox="0 0 32 32" fill="none" xmlns="http://www.w3.org/2000/svg">
<path d="M6 22H2V28.5H6V22Z" stroke="#C7FDD1" stroke-miterlimit="10" stroke-linecap="square"/>
<path d="M22 21.5H18V28.5H22V21.5Z" stroke="#C7FDD1" stroke-miterlimit="10" stroke-linecap="square"/>
<path d="M14 13.5H10V28.5H14V13.5Z" stroke="#C7FDD1" stroke-miterlimit="10" stroke-linecap="square"/>
<path d="M30 13.5H26V28.5H30V13.5Z" stroke="#C7FDD1" stroke-miterlimit="10" stroke-linecap="square"/>
<path d="M4 15.5C5.10457 15.5 6 14.6046 6 13.5C6 12.3954 5.10457 11.5 4 11.5C2.89543 11.5 2 12.3954 2 13.5C2 14.6046 2.89543 15.5 4 15.5Z" stroke="#C7FDD1" stroke-miterlimit="10"/>
<path d="M20 15.5C21.1046 15.5 22 14.6046 22 13.5C22 12.3954 21.1046 11.5 20 11.5C18.8954 11.5 18 12.3954 18 13.5C18 14.6046 18.8954 15.5 20 15.5Z" stroke="#C7FDD1" stroke-miterlimit="10"/>
<path d="M12 7.5C13.1046 7.5 14 6.60457 14 5.5C14 4.39543 13.1046 3.5 12 3.5C10.8954 3.5 10 4.39543 10 5.5C10 6.60457 10.8954 7.5 12 7.5Z" stroke="#C7FDD1" stroke-miterlimit="10"/>
<path d="M28 7.5C29.1046 7.5 30 6.60457 30 5.5C30 4.39543 29.1046 3.5 28 3.5C26.8954 3.5 26 4.39543 26 5.5C26 6.60457 26.8954 7.5 28 7.5Z" stroke="#C7FDD1" stroke-miterlimit="10"/>
<path d="M5.41406 12.0861L10.5861 6.91406" stroke="#C7FDD1" stroke-miterlimit="10"/>
<path d="M18.5861 12.0861L13.4141 6.91406" stroke="#C7FDD1" stroke-miterlimit="10"/>
<path d="M21.4141 12.0861L26.5861 6.91406" stroke="#C7FDD1" stroke-miterlimit="10"/>
</svg>
