<svg width="64" height="64" viewBox="0 0 64 64" fill="none" xmlns="http://www.w3.org/2000/svg">
<path d="M2.5 18.5V7.5C2.9 3.9 6 2.66667 7.5 2.5H48.5C52.5 2.9 53.5 6 53.5 7.5V18.5H2.5Z" fill="#B536FB"/>
<path d="M53.6562 18.2188V7.71875C53.6562 4.83125 51.2938 2.46875 48.4062 2.46875H7.71875C4.83125 2.46875 2.46875 4.83125 2.46875 7.71875V18.2188M53.6562 18.2188H2.46875M53.6562 18.2188H36.5938M53.6562 18.2188V27.9312M2.46875 18.2188V43.9437C2.46875 46.8312 4.83125 49.1937 7.71875 49.1937H19.5312M2.46875 18.2188H19.5312M36.5938 18.2188H19.5312M36.5938 18.2188V27.9312M19.5312 49.1937V18.2188M19.5312 49.1937H26.8813M2.46875 33.9688H30.0312" stroke="#C7FDD1" stroke-miterlimit="10" stroke-linecap="round" stroke-linejoin="round"/>
<path d="M61.5328 61.5312L54.9231 54.9215M54.9231 54.9215C56.02 53.8246 56.89 52.5223 57.4836 51.0892C58.0773 49.656 58.3828 48.12 58.3828 46.5687C58.3828 43.4359 57.1383 40.4313 54.923 38.216C52.7077 36.0008 49.7032 34.7562 46.5703 34.7562C43.4374 34.7562 40.4329 36.0008 38.2176 38.216C36.0023 40.4313 34.7578 43.4359 34.7578 46.5687C34.7578 48.12 35.0634 49.656 35.657 51.0892C36.2506 52.5223 37.1207 53.8245 38.2176 54.9214C39.3145 56.0183 40.6167 56.8884 42.0499 57.4821C43.483 58.0757 45.0191 58.3812 46.5703 58.3812C48.1216 58.3812 49.6576 58.0757 51.0908 57.4821C52.5239 56.8884 53.8262 56.0184 54.9231 54.9215Z" stroke="#C7FDD1" stroke-miterlimit="10" stroke-linecap="round" stroke-linejoin="round"/>
</svg>
