<svg width="64" height="64" viewBox="0 0 64 64" fill="none" xmlns="http://www.w3.org/2000/svg">
<path d="M22.8615 62.0277H4.58377C3.89126 62.0277 3.22711 61.7526 2.73743 61.2629C2.24775 60.7733 1.97266 60.1091 1.97266 59.4166V4.58328C1.97266 3.89077 2.24775 3.22662 2.73743 2.73694C3.22711 2.24727 3.89126 1.97217 4.58377 1.97217H39.2933C39.9857 1.97232 40.6498 2.24751 41.1393 2.73722L50.8187 12.4166C51.3084 12.9062 51.5836 13.5702 51.5838 14.2627V22.8611" stroke="#C7FDD1" stroke-linecap="round" stroke-linejoin="round"/>
<path d="M48.5491 33.3043C48.3374 32.9079 48.022 32.5764 47.6366 32.3453C47.2513 32.1143 46.8103 31.9922 46.361 31.9922C45.9116 31.9922 45.4707 32.1143 45.0853 32.3453C44.6999 32.5764 44.3845 32.9079 44.1729 33.3043L30.9711 58.4623C30.6742 59.0236 30.6108 59.6793 30.7946 60.287C30.9785 60.8947 31.3947 61.4053 31.9529 61.7079C32.3236 61.9116 32.7362 62.0213 33.1592 62.0213H59.5627C59.9847 62.0215 60.3998 61.9139 60.7686 61.7087C61.1373 61.5035 61.4476 61.2076 61.6699 60.8489C61.8893 60.4923 62.0122 60.0848 62.0263 59.6663C62.0405 59.2479 61.9456 58.833 61.7509 58.4623L48.5491 33.3043Z" fill="#B536FB" stroke="#C7FDD1" stroke-linecap="round" stroke-linejoin="round"/>
<path d="M12.418 36.9873L20.1312 29.2715C20.5002 28.9033 20.9852 28.674 21.5039 28.6226C22.0227 28.5712 22.5432 28.7008 22.9773 28.9895L26.6146 31.4178C27.0593 31.7128 27.594 31.8408 28.1241 31.7791C28.6541 31.7175 29.1452 31.4702 29.5103 31.081L36.6595 23.4565" stroke="#C7FDD1" stroke-linecap="round" stroke-linejoin="round"/>
<path d="M12.418 17.6389V43.75H25.4735" stroke="#C7FDD1" stroke-linecap="round" stroke-linejoin="round"/>
<path d="M46.3594 48.9723V41.1389" stroke="#C7FDD1" stroke-linecap="round" stroke-linejoin="round"/>
<path d="M46.3598 55.4999C46.1867 55.4999 46.0206 55.4311 45.8982 55.3087C45.7758 55.1863 45.707 55.0202 45.707 54.8471C45.707 54.674 45.7758 54.508 45.8982 54.3855C46.0206 54.2631 46.1867 54.1943 46.3598 54.1943" stroke="#C7FDD1"/>
<path d="M46.3594 55.4999C46.5325 55.4999 46.6985 55.4311 46.821 55.3087C46.9434 55.1863 47.0122 55.0202 47.0122 54.8471C47.0122 54.674 46.9434 54.508 46.821 54.3855C46.6985 54.2631 46.5325 54.1943 46.3594 54.1943" stroke="#C7FDD1"/>
</svg>
