<svg width="32" height="32" viewBox="0 0 32 32" fill="none" xmlns="http://www.w3.org/2000/svg">
<path d="M30.8529 11.4792V26.3333C30.8529 26.6759 30.7168 27.0044 30.4745 27.2467C30.2323 27.4889 29.9038 27.625 29.5612 27.625H2.4362C2.09363 27.625 1.76509 27.4889 1.52285 27.2467C1.28062 27.0044 1.14453 26.6759 1.14453 26.3333V5.66667C1.14453 5.3241 1.28062 4.99555 1.52285 4.75332C1.76509 4.51109 2.09363 4.375 2.4362 4.375H25.0404" stroke="#C7FDD1" stroke-linecap="round" stroke-linejoin="round"/>
<path d="M8.89453 15.3542C8.89453 15.6086 8.94465 15.8606 9.04202 16.0956C9.13938 16.3307 9.2821 16.5443 9.46201 16.7242C9.64193 16.9041 9.85551 17.0468 10.0906 17.1442C10.3257 17.2416 10.5776 17.2917 10.832 17.2917C11.0865 17.2917 11.3384 17.2416 11.5735 17.1442C11.8085 17.0468 12.0221 16.9041 12.2021 16.7242C12.382 16.5443 12.5247 16.3307 12.622 16.0956C12.7194 15.8606 12.7695 15.6086 12.7695 15.3542C12.7695 15.0998 12.7194 14.8478 12.622 14.6127C12.5247 14.3777 12.382 14.1641 12.2021 13.9842C12.0221 13.8043 11.8085 13.6615 11.5735 13.5642C11.3384 13.4668 11.0865 13.4167 10.832 13.4167C10.5776 13.4167 10.3257 13.4668 10.0906 13.5642C9.85551 13.6615 9.64193 13.8043 9.46201 13.9842C9.2821 14.1641 9.13938 14.3777 9.04202 14.6127C8.94465 14.8478 8.89453 15.0998 8.89453 15.3542Z" fill="#B536FB" stroke="#C7FDD1" stroke-linecap="round" stroke-linejoin="round"/>
<path d="M6.3125 15.3541C6.3125 16.5531 6.7888 17.703 7.63662 18.5509C8.48444 19.3987 9.63433 19.875 10.8333 19.875C12.0323 19.875 13.1822 19.3987 14.03 18.5509C14.8779 17.703 15.3542 16.5531 15.3542 15.3541C15.3542 14.1551 14.8779 13.0053 14.03 12.1574C13.1822 11.3096 12.0323 10.8333 10.8333 10.8333C9.63433 10.8333 8.48444 11.3096 7.63662 12.1574C6.7888 13.0053 6.3125 14.1551 6.3125 15.3541Z" stroke="#C7FDD1" stroke-linecap="round" stroke-linejoin="round"/>
<path d="M27 19V27.5" stroke="#C7FDD1" stroke-linecap="round" stroke-linejoin="round"/>
<path d="M27 19H30.2292" stroke="#C7FDD1" stroke-linecap="round" stroke-linejoin="round"/>
<path d="M27 22.875H30.2292" stroke="#C7FDD1" stroke-linecap="round" stroke-linejoin="round"/>
<path d="M30.3194 8.78347L23.7487 15.3542L20.5195 16L21.1654 12.7708L27.7361 6.20014C27.9051 6.03088 28.1058 5.89659 28.3268 5.80498C28.5478 5.71336 28.7847 5.6662 29.0239 5.6662C29.2631 5.6662 29.4999 5.71336 29.7209 5.80498C29.9419 5.89659 30.1426 6.03088 30.3117 6.20014L30.3194 6.20789C30.4887 6.37692 30.623 6.57766 30.7146 6.79863C30.8062 7.01961 30.8533 7.25647 30.8533 7.49568C30.8533 7.73489 30.8062 7.97176 30.7146 8.19273C30.623 8.4137 30.4887 8.61444 30.3194 8.78347Z" fill="#B536FB" stroke="#C7FDD1" stroke-linecap="round" stroke-linejoin="round"/>
</svg>
