<svg width="32" height="32" viewBox="0 0 32 32" fill="none" xmlns="http://www.w3.org/2000/svg">
<path d="M16 11.4171V6.42743" stroke="#C7FDD1" stroke-miterlimit="10"/>
<path d="M13.3594 3.78598C13.3594 4.4862 13.6375 5.15773 14.1327 5.65286C14.6278 6.14799 15.2993 6.42615 15.9995 6.42615C16.6998 6.42615 17.3713 6.14799 17.8664 5.65286C18.3615 5.15773 18.6397 4.4862 18.6397 3.78598C18.6397 3.08576 18.3615 2.41423 17.8664 1.9191C17.3713 1.42397 16.6998 1.14581 15.9995 1.14581C15.2993 1.14581 14.6278 1.42397 14.1327 1.9191C13.6375 2.41423 13.3594 3.08576 13.3594 3.78598Z" fill="#B536FB" stroke="#C7FDD1" stroke-miterlimit="10"/>
<path d="M11.0464 13.1015L7.75391 11.3784" stroke="#C7FDD1" stroke-miterlimit="10"/>
<path d="M2.82812 10.0583C2.82813 10.7585 3.10628 11.4301 3.60141 11.9252C4.09654 12.4203 4.76808 12.6985 5.46829 12.6985C6.16851 12.6985 6.84004 12.4203 7.33517 11.9252C7.8303 11.4301 8.10846 10.7585 8.10846 10.0583C8.10846 9.3581 7.8303 8.68657 7.33517 8.19144C6.84004 7.69631 6.16851 7.41815 5.46829 7.41815C4.76808 7.41815 4.09654 7.69631 3.60141 8.19144C3.10628 8.68657 2.82813 9.3581 2.82812 10.0583Z" fill="#B536FB" stroke="#C7FDD1" stroke-miterlimit="10"/>
<path d="M20.9688 13.0938L24.2457 11.3784" stroke="#C7FDD1" stroke-miterlimit="10"/>
<path d="M23.8945 10.0583C23.8945 10.405 23.9628 10.7483 24.0955 11.0687C24.2282 11.389 24.4227 11.68 24.6678 11.9252C24.913 12.1704 25.204 12.3648 25.5243 12.4975C25.8447 12.6302 26.188 12.6985 26.5347 12.6985C26.8814 12.6985 27.2247 12.6302 27.545 12.4975C27.8654 12.3648 28.1564 12.1704 28.4016 11.9252C28.6467 11.68 28.8412 11.389 28.9739 11.0687C29.1066 10.7483 29.1749 10.405 29.1749 10.0583C29.1749 9.71161 29.1066 9.36829 28.9739 9.04797C28.8412 8.72765 28.6467 8.4366 28.4016 8.19144C28.1564 7.94628 27.8654 7.7518 27.545 7.61912C27.2247 7.48644 26.8814 7.41815 26.5347 7.41815C26.188 7.41815 25.8447 7.48644 25.5243 7.61912C25.204 7.7518 24.913 7.94628 24.6678 8.19144C24.4227 8.4366 24.2282 8.72765 24.0955 9.04797C23.9628 9.36829 23.8945 9.71161 23.8945 10.0583Z" fill="#B536FB" stroke="#C7FDD1" stroke-miterlimit="10"/>
<path d="M16 21.3204V25.5725" stroke="#C7FDD1" stroke-miterlimit="10"/>
<path d="M13.3594 28.214C13.3594 28.9142 13.6375 29.5858 14.1327 30.0809C14.6278 30.576 15.2993 30.8542 15.9995 30.8542C16.6998 30.8542 17.3713 30.576 17.8664 30.0809C18.3615 29.5858 18.6397 28.9142 18.6397 28.214C18.6397 27.5138 18.3615 26.8423 17.8664 26.3471C17.3713 25.852 16.6998 25.5739 15.9995 25.5739C15.2993 25.5739 14.6278 25.852 14.1327 26.3471C13.6375 26.8423 13.3594 27.5138 13.3594 28.214Z" fill="#B536FB" stroke="#C7FDD1" stroke-miterlimit="10"/>
<path d="M10.5245 19.246L7.75391 20.6991" stroke="#C7FDD1" stroke-miterlimit="10"/>
<path d="M2.82812 22.0192C2.82813 22.7194 3.10628 23.3909 3.60141 23.8861C4.09654 24.3812 4.76808 24.6594 5.46829 24.6594C6.16851 24.6594 6.84004 24.3812 7.33517 23.8861C7.8303 23.3909 8.10846 22.7194 8.10846 22.0192C8.10846 21.319 7.8303 20.6474 7.33517 20.1523C6.84004 19.6572 6.16851 19.379 5.46829 19.379C4.76808 19.379 4.09654 19.6572 3.60141 20.1523C3.10628 20.6474 2.82813 21.319 2.82812 22.0192Z" fill="#B536FB" stroke="#C7FDD1" stroke-miterlimit="10"/>
<path d="M21.4922 19.2537L24.2473 20.6991" stroke="#C7FDD1" stroke-miterlimit="10"/>
<path d="M23.8945 22.0192C23.8945 22.3659 23.9628 22.7092 24.0955 23.0295C24.2282 23.3499 24.4227 23.6409 24.6678 23.8861C24.913 24.1312 25.204 24.3257 25.5243 24.4584C25.8447 24.5911 26.188 24.6594 26.5347 24.6594C26.8814 24.6594 27.2247 24.5911 27.545 24.4584C27.8654 24.3257 28.1564 24.1312 28.4016 23.8861C28.6467 23.6409 28.8412 23.3499 28.9739 23.0295C29.1066 22.7092 29.1749 22.3659 29.1749 22.0192C29.1749 21.6725 29.1066 21.3292 28.9739 21.0088C28.8412 20.6885 28.6467 20.3975 28.4016 20.1523C28.1564 19.9072 27.8654 19.7127 27.545 19.58C27.2247 19.4473 26.8814 19.379 26.5347 19.379C26.188 19.379 25.8447 19.4473 25.5243 19.58C25.204 19.7127 24.913 19.9072 24.6678 20.1523C24.4227 20.3975 24.2282 20.6885 24.0955 21.0088C23.9628 21.3292 23.8945 21.6725 23.8945 22.0192Z" fill="#B536FB" stroke="#C7FDD1" stroke-miterlimit="10"/>
<path d="M23.7374 15.7791C23.8675 15.9484 23.938 16.1559 23.938 16.3694C23.938 16.5829 23.8675 16.7904 23.7374 16.9597C22.7363 18.2733 19.9838 21.3204 16.0158 21.3204C12.0478 21.3204 9.29912 18.272 8.29421 16.9584C8.16422 16.7893 8.09375 16.582 8.09375 16.3688C8.09375 16.1555 8.16422 15.9482 8.29421 15.7791C9.29654 14.4655 12.0491 11.4172 16.0158 11.4172C19.9825 11.4172 22.735 14.4668 23.7374 15.7791Z" stroke="#C7FDD1" stroke-linecap="round" stroke-linejoin="round"/>
<path d="M16.0125 14.0392C16.4723 14.0392 16.9219 14.1756 17.3042 14.4311C17.6865 14.6866 17.9845 15.0497 18.1605 15.4745C18.3365 15.8993 18.3825 16.3668 18.2928 16.8178C18.2031 17.2688 17.9817 17.6831 17.6565 18.0083C17.3314 18.3334 16.9171 18.5549 16.4661 18.6446C16.0151 18.7343 15.5476 18.6882 15.1228 18.5123C14.6979 18.3363 14.3348 18.0383 14.0793 17.6559C13.8239 17.2736 13.6875 16.8241 13.6875 16.3642C13.6875 15.7476 13.9325 15.1562 14.3685 14.7202C14.8045 14.2842 15.3959 14.0392 16.0125 14.0392Z" stroke="#C7FDD1" stroke-linecap="round" stroke-linejoin="round"/>
</svg>
