<svg width="116" height="30" viewBox="0 0 116 30" fill="none" xmlns="http://www.w3.org/2000/svg">
<path d="M18.3295 0.19104H12.701L0.191162 20.5285C1.74615 23.2088 3.97798 25.4338 6.66317 26.9803C9.34835 28.5268 12.3932 29.3405 15.4919 29.3405C18.5906 29.3405 21.6348 28.5268 24.32 26.9803C27.0052 25.4338 29.237 23.2088 30.792 20.5285L18.3295 0.19104ZM7.68795 20.4575L15.5156 7.73517L23.2952 20.4812L7.68795 20.4575Z" fill="#B536FB"/>
<path d="M48.6446 4.94385H45.0507L37.9563 24.2646H41.4325L42.8983 19.9132H50.5603L52.0267 24.2646H55.5502L48.6446 4.94385ZM46.8479 7.87617L49.6856 17.0045H43.9387L46.8479 7.87617Z" fill="white"/>
<path d="M62.8115 10.3336C62.2037 10.5227 61.6605 10.8775 61.2428 11.3578C60.8252 11.8381 60.5496 12.4253 60.4467 13.0534V10.4993H57.4197V24.2862H60.5171V16.6243C60.4997 16.0396 60.6202 15.459 60.8681 14.9292C61.1161 14.3994 61.4848 13.9348 61.9449 13.5736C62.405 13.2124 62.9435 12.9647 63.517 12.8496C64.0905 12.7346 64.6829 12.7557 65.2467 12.9114V10.2389C64.4351 10.1365 63.6127 10.1685 62.8115 10.3336Z" fill="white"/>
<path d="M101.76 18.1393C101.76 20.0548 101.027 21.8991 98.6151 22.0647C96.203 22.2302 95.6828 20.1969 95.6828 18.3523V10.4301H92.6794V19.5111C92.5946 20.1674 92.6556 20.8343 92.8584 21.4642C93.0613 22.0941 93.4008 22.6712 93.8526 23.1547C94.3044 23.6382 94.8579 24.0159 95.4726 24.2609C96.0874 24.5058 96.7485 24.6118 97.409 24.5715C98.327 24.6612 99.2519 24.4996 100.085 24.1038C100.918 23.7081 101.628 23.0933 102.139 22.325V24.2407H105.047V10.4537H101.997L101.76 18.1393Z" fill="white"/>
<path d="M70.5056 20.3265V12.8303H74.1001V10.2525H70.5293V6.27979H67.5022V10.3708H65.1375V12.9487H67.5022V20.4685C67.5022 22.6442 68.3538 24.4886 71.8537 24.4886C72.649 24.5165 73.4444 24.4373 74.2185 24.2524V21.8877C73.6224 21.9678 73.0224 22.0148 72.4212 22.0291C72.1771 22.0825 71.924 22.0779 71.6822 22.0147C71.4404 21.9515 71.2166 21.832 71.0298 21.666C70.843 21.4999 70.6983 21.2919 70.6072 21.0592C70.5161 20.8264 70.4812 20.5752 70.5056 20.3265Z" fill="white"/>
<path d="M85.2292 10.0998C84.3005 10.0275 83.3691 10.2091 82.5359 10.6257C81.7027 11.0423 80.9991 11.6782 80.4996 12.4646V4.99146H77.3779V24.3122H80.4996V17.0048C80.4996 14.9474 81.1378 13.0556 83.6917 12.8664C86.2457 12.6772 86.6241 14.5927 86.6241 16.4136V24.3359H89.8404V15.0418C89.9048 14.4051 89.8324 13.7621 89.628 13.1557C89.4236 12.5492 89.0918 11.9932 88.6552 11.5252C88.2185 11.0573 87.6872 10.688 87.0963 10.4421C86.5054 10.1963 85.8689 10.0797 85.2292 10.0998Z" fill="white"/>
<path d="M113.418 10.3354C112.812 10.527 112.271 10.8827 111.853 11.3625C111.436 11.8424 111.159 12.4282 111.054 13.0553V10.5011H108.05V24.2881H111.148V16.6262C111.131 16.0415 111.251 15.4609 111.499 14.9311C111.747 14.4013 112.115 13.9367 112.576 13.5755C113.036 13.2143 113.575 12.9666 114.148 12.8515C114.722 12.7364 115.314 12.7575 115.878 12.9133V10.2408C115.059 10.1357 114.227 10.1678 113.418 10.3354Z" fill="white"/>
</svg>
