<svg width="64" height="64" viewBox="0 0 64 64" fill="none" xmlns="http://www.w3.org/2000/svg">
<path d="M13.625 31.9297C13.625 34.3427 14.1003 36.7321 15.0237 38.9615C15.9471 41.1909 17.3006 43.2165 19.0069 44.9228C20.7132 46.629 22.7388 47.9825 24.9682 48.906C27.1975 49.8294 29.587 50.3047 32 50.3047C34.413 50.3047 36.8024 49.8294 39.0318 48.906C41.2612 47.9825 43.2868 46.629 44.9931 44.9228C46.6994 43.2165 48.0529 41.1909 48.9763 38.9615C49.8997 36.7321 50.375 34.3427 50.375 31.9297C50.375 29.5166 49.8997 27.1272 48.9763 24.8979C48.0529 22.6685 46.6994 20.6429 44.9931 18.9366C43.2868 17.2303 41.2612 15.8768 39.0318 14.9534C36.8024 14.03 34.413 13.5547 32 13.5547C29.587 13.5547 27.1975 14.03 24.9682 14.9534C22.7388 15.8768 20.7132 17.2303 19.0069 18.9366C17.3006 20.6429 15.9471 22.6685 15.0237 24.8979C14.1003 27.1272 13.625 29.5166 13.625 31.9297Z" stroke="#C7FDD1" stroke-linecap="round" stroke-linejoin="round"/>
<path d="M61.0374 36.0819C61.3566 36.042 61.65 35.8863 61.862 35.6444C62.0739 35.4024 62.1897 35.0911 62.1872 34.7694V29.2202C62.1897 28.8985 62.0739 28.5871 61.862 28.3452C61.65 28.1032 61.3566 27.9475 61.0374 27.9077L55.1285 27.17C54.5262 24.276 53.3817 21.522 51.7554 19.0535L55.4173 14.3417C55.6134 14.0893 55.7106 13.774 55.6908 13.4551C55.671 13.1361 55.5355 12.8353 55.3097 12.6092L51.3722 8.67166C51.146 8.44588 50.8452 8.31036 50.5263 8.29055C50.2073 8.27073 49.892 8.36798 49.6397 8.56404L44.9278 12.239C42.4589 10.613 39.7051 9.46768 36.8113 8.86329L36.0815 2.96229C36.0417 2.64311 35.886 2.34969 35.644 2.13773C35.4021 1.92578 35.0907 1.81006 34.769 1.81254H29.2198C28.8981 1.81006 28.5868 1.92578 28.3448 2.13773C28.1029 2.34969 27.9472 2.64311 27.9073 2.96229L27.1697 8.86854C24.2795 9.47418 21.5294 10.6194 19.0637 12.2443L14.3518 8.58241C14.0994 8.38635 13.7842 8.28911 13.4652 8.30892C13.1462 8.32874 12.8455 8.46425 12.6193 8.69004L8.6818 12.6275C8.45601 12.8537 8.3205 13.1545 8.30068 13.4735C8.28087 13.7924 8.37811 14.1077 8.57417 14.36L12.2492 19.085C10.6229 21.5535 9.47836 24.3075 8.87605 27.2015L2.96717 27.9392C2.64799 27.979 2.35457 28.1347 2.14262 28.3767C1.93066 28.6186 1.81494 28.93 1.81742 29.2517V34.8114C1.81494 35.1331 1.93066 35.4444 2.14262 35.6864C2.35457 35.9283 2.64799 36.084 2.96717 36.1239L8.87605 36.8615C9.47836 39.7556 10.6229 42.5095 12.2492 44.978L8.58205 49.6479C8.38599 49.9003 8.28874 50.2155 8.30856 50.5345C8.32837 50.8535 8.46388 51.1542 8.68967 51.3804L12.6272 55.3179C12.8533 55.5437 13.1541 55.6792 13.4731 55.699C13.7921 55.7188 14.1073 55.6216 14.3597 55.4255L19.0847 51.7637C21.5536 53.3897 24.3073 54.535 27.2012 55.1394L27.9388 61.0457C27.9787 61.3648 28.1344 61.6583 28.3763 61.8702C28.6183 62.0822 28.9296 62.1979 29.2513 62.1954H34.811C35.1327 62.1979 35.4441 62.0822 35.686 61.8702C35.928 61.6583 36.0837 61.3648 36.1235 61.0457L36.8612 55.1394C39.755 54.535 42.5087 53.3897 44.9777 51.7637L49.6895 55.4255C49.9419 55.6216 50.2572 55.7188 50.5761 55.699C50.8951 55.6792 51.1959 55.5437 51.422 55.3179L55.3595 51.3804C55.5853 51.1542 55.7208 50.8535 55.7407 50.5345C55.7605 50.2155 55.6632 49.9003 55.4672 49.6479L51.8053 44.936C53.4316 42.4675 54.5761 39.7136 55.1784 36.8195L61.0374 36.0819Z" stroke="#C7FDD1" stroke-linecap="round" stroke-linejoin="round"/>
<path d="M39.75 38.5625V24.125C39.75 23.7769 39.6117 23.4431 39.3656 23.1969C39.1194 22.9508 38.7856 22.8125 38.4375 22.8125H35.8125C35.4644 22.8125 35.1306 22.9508 34.8844 23.1969C34.6383 23.4431 34.5 23.7769 34.5 24.125V38.5625" fill="#B536FB"/>
<path d="M39.75 38.5625V24.125C39.75 23.7769 39.6117 23.4431 39.3656 23.1969C39.1194 22.9508 38.7856 22.8125 38.4375 22.8125H35.8125C35.4644 22.8125 35.1306 22.9508 34.8844 23.1969C34.6383 23.4431 34.5 23.7769 34.5 24.125V38.5625" stroke="#C7FDD1" stroke-linecap="round" stroke-linejoin="round"/>
<path d="M29.25 38.5625V32C29.25 31.6519 29.1117 31.3181 28.8656 31.0719C28.6194 30.8258 28.2856 30.6875 27.9375 30.6875H25.3125C24.9644 30.6875 24.6306 30.8258 24.3844 31.0719C24.1383 31.3181 24 31.6519 24 32V38.5625" fill="#B536FB"/>
<path d="M29.25 38.5625V32C29.25 31.6519 29.1117 31.3181 28.8656 31.0719C28.6194 30.8258 28.2856 30.6875 27.9375 30.6875H25.3125C24.9644 30.6875 24.6306 30.8258 24.3844 31.0719C24.1383 31.3181 24 31.6519 24 32V38.5625" stroke="#C7FDD1" stroke-linecap="round" stroke-linejoin="round"/>
<path d="M21.5 38.5625H42.5" stroke="#C7FDD1" stroke-linecap="round" stroke-linejoin="round"/>
</svg>
