<svg width="32" height="32" viewBox="0 0 32 32" fill="none" xmlns="http://www.w3.org/2000/svg">
<path d="M26.9795 30.8529C27.7545 30.8529 28.2712 30.3362 28.2712 29.5612V8.89453C28.2712 4.63203 24.7837 1.14453 20.5212 1.14453H5.02116C4.24616 1.14453 3.72949 1.6612 3.72949 2.4362V29.5612C3.72949 30.3362 4.24616 30.8529 5.02116 30.8529H26.9795Z" stroke="#C7FDD1" stroke-linecap="round" stroke-linejoin="round"/>
<path d="M21.8125 1.27344V6.31094C21.8125 7.08594 22.3292 7.60261 23.1042 7.60261H28.1417" stroke="#C7FDD1" stroke-linecap="round" stroke-linejoin="round"/>
<path d="M23.621 22.2016C23.8793 22.5891 23.7501 22.9766 23.621 23.3641C23.3626 23.7516 22.9751 23.8807 22.5876 23.8807H9.41263C9.02513 23.8807 8.63763 23.6224 8.3793 23.3641C8.12096 22.9766 8.12096 22.5891 8.3793 22.2016L14.9668 9.80156C15.096 9.54323 15.2251 9.41407 15.4835 9.2849C16.1293 9.02657 16.7751 9.15573 17.1626 9.80156L23.621 22.2016Z" fill="#B536FB" stroke="#C7FDD1" stroke-linecap="round" stroke-linejoin="round"/>
<path d="M16 13.5469V17.4219" stroke="#C7FDD1" stroke-linecap="round" stroke-linejoin="round"/>
<path d="M15.9997 20.5872C15.8213 20.5872 15.6768 20.4427 15.6768 20.2643C15.6768 20.0859 15.8213 19.9414 15.9997 19.9414" stroke="#C7FDD1"/>
<path d="M16 20.5872C16.1784 20.5872 16.3229 20.4427 16.3229 20.2643C16.3229 20.0859 16.1784 19.9414 16 19.9414" stroke="#C7FDD1"/>
</svg>
