<svg width="64" height="64" viewBox="0 0 64 64" fill="none" xmlns="http://www.w3.org/2000/svg">
<path d="M27.2754 47.6529H7.27295C6.54317 47.6529 5.82055 47.5091 5.14633 47.2299C4.4721 46.9506 3.85949 46.5413 3.34346 46.0252C2.3013 44.9831 1.71582 43.5696 1.71582 42.0957V7.36963C1.71582 5.89578 2.3013 4.48231 3.34346 3.44014C4.38563 2.39798 5.7991 1.8125 7.27295 1.8125H48.9448C50.4187 1.8125 51.8321 2.39798 52.8743 3.44014C53.9165 4.48231 54.5019 5.89578 54.5019 7.36963V26.9757" stroke="#C7FDD1" stroke-linecap="round" stroke-linejoin="round"/>
<path d="M1.71582 12.6641H54.5019" stroke="#C7FDD1" stroke-linecap="round" stroke-linejoin="round"/>
<path d="M1.71582 35.7188H25.0179" stroke="#C7FDD1" stroke-linecap="round" stroke-linejoin="round"/>
<path d="M1.71582 24.2109H54.5019" stroke="#C7FDD1" stroke-linecap="round" stroke-linejoin="round"/>
<path d="M23.2773 12.6641V47.6527" stroke="#C7FDD1" stroke-linecap="round" stroke-linejoin="round"/>
<path d="M38.7334 12.6641V26.2589" stroke="#C7FDD1" stroke-linecap="round" stroke-linejoin="round"/>
<path d="M50.4568 54.3127V47.7502L61.4818 36.7383C61.8713 36.3481 62.1365 35.8512 62.2439 35.3104C62.3513 34.7695 62.2961 34.209 62.0851 33.6996C61.8742 33.1901 61.5171 32.7546 61.0589 32.4479C60.6006 32.1413 60.0618 31.9772 59.5104 31.9766H33.5282C32.9768 31.9772 32.4379 32.1413 31.9797 32.4479C31.5215 32.7546 31.1643 33.1901 30.9534 33.6996C30.7425 34.209 30.6873 34.7695 30.7946 35.3104C30.902 35.8512 31.1672 36.3481 31.5568 36.7383L42.5818 47.7633V62.1877L50.4568 54.3127Z" fill="#B536FB" stroke="#C7FDD1" stroke-linecap="round" stroke-linejoin="round"/>
</svg>
