<svg width="64" height="64" viewBox="0 0 64 64" fill="none" xmlns="http://www.w3.org/2000/svg">
<path d="M32.9837 9.75781H5.5309C4.31272 9.75781 3.3252 10.7453 3.3252 11.9635V47.255C3.3252 48.473 4.31272 49.4605 5.5309 49.4605H58.468C59.6863 49.4605 60.6738 48.473 60.6738 47.255V24.3886" stroke="#C7FDD1" stroke-linecap="round" stroke-linejoin="round"/>
<path d="M27.5881 49.4609L23.1768 60.4896" stroke="#C7FDD1" stroke-linecap="round" stroke-linejoin="round"/>
<path d="M36.4111 49.4609L40.8227 60.4896" stroke="#C7FDD1" stroke-linecap="round" stroke-linejoin="round"/>
<path d="M18.7656 60.4883H45.2342" stroke="#C7FDD1" stroke-linecap="round" stroke-linejoin="round"/>
<path d="M53.9327 3.51172H45.9947V10.2535H39.2529V18.1914H45.9947V24.9329H53.9327V18.1914H60.6742V10.2535H53.9327V3.51172Z" fill="#B536FB" stroke="#C7FDD1" stroke-linecap="round" stroke-linejoin="round"/>
<path d="M14.3408 42.2281L23.2632 32.2996L29.4214 37.7037L38.4703 28.1523" stroke="#C7FDD1" stroke-linecap="round" stroke-linejoin="round"/>
<path d="M20.9542 18.1094H12.4521" stroke="#C7FDD1" stroke-linecap="round" stroke-linejoin="round"/>
<path d="M16.2276 25.8633H12.4512" stroke="#C7FDD1" stroke-linecap="round" stroke-linejoin="round"/>
</svg>
