<svg width="1355" height="225" viewBox="0 0 1355 225" fill="none" xmlns="http://www.w3.org/2000/svg">
<path d="M119.438 8H82.3753L0 141.919C10.2393 159.568 24.9356 174.219 42.6171 184.403C60.2986 194.586 80.3482 199.944 100.753 199.944C121.157 199.944 141.203 194.586 158.885 184.403C176.566 174.219 191.262 159.568 201.502 141.919L119.438 8ZM49.3651 141.451L100.909 57.6768L152.137 141.607L49.3651 141.451Z" fill="#B536FB"/>
<path d="M320.79 41.1465H296.543L248.678 171.499H272.131L282.021 142.141H333.715L343.608 171.499H367.381L320.79 41.1465ZM308.668 60.9302L327.813 122.517H289.041L308.668 60.9302Z" fill="white"/>
<path d="M416.369 77.5092C412.269 78.7854 408.604 81.1788 405.786 84.4193C402.968 87.6598 401.109 91.6218 400.415 95.8595V78.6271H379.992V171.645H400.89V119.951C400.772 116.007 401.585 112.089 403.258 108.515C404.931 104.941 407.418 101.806 410.523 99.3691C413.627 96.9322 417.26 95.2608 421.129 94.4845C424.999 93.7082 428.995 93.8505 432.799 94.9013V76.8704C427.324 76.1794 421.775 76.3956 416.369 77.5092V77.5092Z" fill="white"/>
<path d="M679.149 130.172C679.149 143.096 674.202 155.539 657.928 156.656C641.654 157.773 638.144 144.054 638.144 131.61V78.1597H617.882V139.427C617.309 143.855 617.721 148.355 619.089 152.605C620.458 156.855 622.748 160.748 625.797 164.01C628.845 167.272 632.579 169.821 636.726 171.473C640.874 173.126 645.335 173.841 649.791 173.569C655.984 174.174 662.224 173.084 667.845 170.414C673.466 167.744 678.257 163.596 681.7 158.413V171.337H701.325V78.3194H680.742L679.149 130.172Z" fill="white"/>
<path d="M478.217 144.93V94.3549H502.468V76.9628H478.376V50.1599H457.954V77.7613H441.999V95.1534H457.954V145.888C457.954 160.567 463.699 173.011 487.312 173.011C492.678 173.199 498.044 172.665 503.267 171.418V155.463C499.245 156.004 495.197 156.32 491.141 156.417C489.494 156.778 487.786 156.746 486.155 156.32C484.524 155.893 483.014 155.087 481.754 153.967C480.493 152.847 479.517 151.443 478.902 149.873C478.288 148.303 478.052 146.608 478.217 144.93V144.93Z" fill="white"/>
<path d="M567.621 75.9323C561.355 75.4449 555.072 76.6701 549.45 79.4808C543.829 82.2915 539.081 86.5818 535.712 91.887V41.4675H514.65V171.82H535.712V122.519C535.712 108.638 540.017 95.8744 557.248 94.5981C574.479 93.3217 577.032 106.245 577.032 118.53V171.98H598.732V109.275C599.166 104.979 598.678 100.641 597.299 96.5496C595.92 92.4577 593.681 88.7067 590.735 85.5495C587.79 82.3923 584.205 79.901 580.218 78.2421C576.232 76.5832 571.937 75.7968 567.621 75.9323V75.9323Z" fill="white"/>
<path d="M757.805 77.5218C753.713 78.8141 750.06 81.2137 747.245 84.4513C744.429 87.6889 742.562 91.6411 741.85 95.8721V78.6397H721.587V171.657H742.489V119.964C742.371 116.019 743.18 112.102 744.853 108.528C746.526 104.953 749.013 101.819 752.118 99.3816C755.222 96.9448 758.859 95.2734 762.728 94.4971C766.598 93.7207 770.594 93.863 774.398 94.9139V76.883C768.87 76.1742 763.262 76.3905 757.805 77.5218V77.5218Z" fill="white"/>
<path d="M866.854 172.69C830.979 172.69 818.019 152.968 815.577 130.053H831.354C833.421 146.019 839.807 159.542 866.854 159.542C884.134 159.542 897.47 149.4 897.47 134.185C897.47 118.971 890.521 112.585 864.976 108.453C836.801 104.133 820.085 95.3048 820.085 71.4505C820.085 50.7893 837.928 35.0116 863.285 35.0116C890.145 35.0116 906.862 48.1596 909.491 72.014H894.841C891.648 55.1093 881.881 48.1596 863.285 48.1596C844.878 48.1596 835.299 57.3633 835.299 69.9478C835.299 83.0959 840.182 89.8578 867.605 93.99C897.47 98.6857 913.248 107.702 913.248 133.058C913.248 155.598 893.526 172.69 866.854 172.69ZM977.101 172.69C949.678 172.69 929.017 153.344 929.017 122.916V121.413C929.017 91.3604 950.429 71.0748 976.725 71.0748C997.199 71.0748 1016.36 80.4663 1019.36 105.448H1003.96C1001.52 89.8578 990.249 84.035 976.725 84.035C958.882 84.035 945.17 98.3101 945.17 121.413V122.916C945.17 146.958 958.318 159.73 977.289 159.73C991.188 159.73 1003.77 151.654 1005.46 135.688H1019.93C1017.86 156.913 1000.77 172.69 977.101 172.69ZM1080.47 172.69C1052.48 172.69 1032.38 151.466 1032.38 122.728V121.225C1032.38 91.736 1052.86 71.0748 1080.65 71.0748C1108.45 71.0748 1128.93 91.5482 1128.93 121.037V122.54C1128.93 152.217 1108.45 172.69 1080.47 172.69ZM1080.65 159.73C1100.38 159.73 1112.77 144.892 1112.77 122.728V121.413C1112.77 98.6857 1100.19 84.035 1080.65 84.035C1060.93 84.035 1048.53 98.6857 1048.53 121.225V122.728C1048.53 145.08 1060.74 159.73 1080.65 159.73ZM1149.31 205.185V72.7653H1164.9V89.2943C1170.53 79.715 1183.87 71.0748 1198.14 71.0748C1223.88 71.0748 1242.85 89.8578 1242.85 120.474V121.977C1242.85 152.029 1225.19 172.69 1198.14 172.69C1181.99 172.69 1170.53 164.614 1164.9 154.847V205.185H1149.31ZM1196.64 159.73C1216.18 159.73 1226.69 146.582 1226.69 122.728V121.225C1226.69 96.4318 1212.98 84.035 1196.45 84.035C1178.23 84.035 1164.33 96.0561 1164.33 121.225V122.728C1164.33 147.897 1177.48 159.73 1196.64 159.73ZM1303.51 172.69C1275.71 172.69 1255.99 153.156 1255.99 122.916V121.413C1255.99 91.736 1274.96 71.0748 1302 71.0748C1324.73 71.0748 1346.14 84.7864 1346.14 119.91V124.982H1272.14C1272.89 147.334 1283.6 159.73 1303.7 159.73C1318.91 159.73 1327.74 154.095 1329.8 142.638H1345.39C1342.01 162.36 1325.67 172.69 1303.51 172.69ZM1272.7 112.397H1330.18C1328.68 92.1117 1318.16 84.035 1302 84.035C1286.04 84.035 1275.33 94.9291 1272.7 112.397Z" fill="#B536FB"/>
</svg>
