<svg width="861" height="131" viewBox="0 0 861 131" fill="none" xmlns="http://www.w3.org/2000/svg">
<path d="M79.551 0.370239H54.8656L0 91.1424C6.81984 103.105 16.6082 113.036 28.3848 119.939C40.1615 126.841 53.5155 130.473 67.1057 130.473C80.696 130.473 94.0474 126.841 105.824 119.939C117.601 113.036 127.389 103.105 134.209 91.1424L79.551 0.370239ZM32.8793 90.8255L67.2095 34.042L101.33 90.9311L32.8793 90.8255Z" fill="#B536FB"/>
<path d="M212.508 22.838H196.746L165.631 109.072H180.877L187.306 89.6506H220.91L227.341 109.072H242.794L212.508 22.838ZM204.628 35.9258L217.073 76.6685H191.869L204.628 35.9258Z" fill="white"/>
<path d="M274.64 46.8932C271.974 47.7375 269.592 49.3208 267.76 51.4646C265.928 53.6083 264.72 56.2293 264.268 59.0328V47.6328H250.992V109.168H264.577V74.9706C264.501 72.361 265.029 69.7696 266.117 67.405C267.204 65.0404 268.821 62.9666 270.839 61.3545C272.857 59.7424 275.218 58.6367 277.734 58.1231C280.249 57.6096 282.847 57.7037 285.32 58.3989V46.4706C281.76 46.0135 278.154 46.1565 274.64 46.8932V46.8932Z" fill="white"/>
<path d="M445.461 81.7328C445.461 90.2822 442.245 98.514 431.666 99.2528C421.087 99.9917 418.805 90.9164 418.805 82.6837V47.3241H405.633V87.8554C405.261 90.7846 405.529 93.7615 406.418 96.5729C407.308 99.3843 408.797 101.96 410.779 104.118C412.76 106.276 415.188 107.962 417.884 109.055C420.58 110.148 423.479 110.621 426.376 110.442C430.402 110.842 434.459 110.121 438.113 108.354C441.767 106.588 444.881 103.844 447.119 100.415V108.965H459.876V47.4297H446.496L445.461 81.7328Z" fill="white"/>
<path d="M314.844 91.4952V58.0374H330.609V46.5317H314.947V28.8004H301.672V47.06H291.3V58.5656H301.672V92.1291C301.672 101.84 305.406 110.072 320.756 110.072C324.244 110.196 327.733 109.843 331.128 109.018V98.463C328.514 98.8209 325.882 99.0304 323.245 99.0944C322.174 99.3328 321.065 99.312 320.004 99.0299C318.944 98.7479 317.962 98.2146 317.143 97.4735C316.324 96.7324 315.689 95.804 315.289 94.7653C314.89 93.7265 314.737 92.6054 314.844 91.4952V91.4952Z" fill="white"/>
<path d="M372.962 45.8497C368.889 45.5273 364.804 46.3378 361.15 48.1972C357.495 50.0566 354.409 52.8948 352.219 56.4045V23.0497H338.528V109.284H352.219V76.6688C352.219 67.4862 355.018 59.0423 366.219 58.1979C377.42 57.3536 379.079 65.9029 379.079 74.0301V109.39H393.186V67.9075C393.468 65.0654 393.15 62.1959 392.254 59.4889C391.358 56.782 389.902 54.3005 387.987 52.2119C386.072 50.1233 383.742 48.4752 381.151 47.3777C378.559 46.2803 375.767 45.76 372.962 45.8497V45.8497Z" fill="white"/>
<path d="M496.591 46.9002C493.932 47.7551 491.557 49.3426 489.727 51.4844C487.897 53.6262 486.682 56.2407 486.22 59.0397V47.6397H473.048V109.175H486.635V74.9776C486.559 72.3679 487.084 69.7765 488.172 67.4119C489.259 65.0473 490.876 62.9736 492.894 61.3615C494.912 59.7494 497.276 58.6437 499.792 58.1301C502.307 57.6165 504.905 57.7107 507.378 58.4058V46.4776C503.784 46.0087 500.139 46.1518 496.591 46.9002V46.9002Z" fill="white"/>
<path d="M577.179 112.706C554.36 112.706 546.117 99.6339 544.564 84.4452H554.599C555.913 95.0275 559.975 103.991 577.179 103.991C588.17 103.991 596.652 97.2685 596.652 87.1841C596.652 77.0998 592.232 72.8668 575.984 70.1279C558.064 67.2644 547.431 61.413 547.431 45.6018C547.431 31.907 558.781 21.4492 574.909 21.4492C591.993 21.4492 602.625 30.164 604.298 45.9753H594.979C592.948 34.7704 586.736 30.164 574.909 30.164C563.201 30.164 557.108 36.2644 557.108 44.6058C557.108 53.3207 560.214 57.8026 577.657 60.5415C596.652 63.654 606.687 69.6299 606.687 86.4371C606.687 101.377 594.143 112.706 577.179 112.706Z" fill="#B536FB"/>
<path d="M620.182 111.586V15.3488H630.097V56.8066C632.965 50.7062 639.894 45.3528 650.168 45.3528C663.07 45.3528 672.15 52.6982 672.15 71.6219V111.586H662.234V70.8749C662.234 59.4211 657.575 54.3166 647.54 54.3166C638.341 54.3166 630.097 60.417 630.097 72.1199V111.586H620.182Z" fill="#B536FB"/>
<path d="M693.016 32.903C689.432 32.903 686.445 29.7905 686.445 26.0556C686.445 22.3207 689.432 19.2082 693.016 19.2082C696.6 19.2082 699.587 22.3207 699.587 26.0556C699.587 29.7905 696.6 32.903 693.016 32.903ZM688.237 111.586V46.4733H698.153V111.586H688.237Z" fill="#B536FB"/>
<path d="M740.431 112.706C722.749 112.706 710.205 99.7584 710.205 79.7142V78.7183C710.205 59.0476 722.271 45.3528 739.475 45.3528C753.93 45.3528 767.55 54.4411 767.55 77.7223V81.0837H720.479C720.957 95.899 727.767 104.116 740.55 104.116C750.227 104.116 755.842 100.381 757.156 92.7865H767.072C764.921 105.859 754.528 112.706 740.431 112.706ZM720.838 72.7424H757.395C756.439 59.2966 749.749 53.9431 739.475 53.9431C729.32 53.9431 722.51 61.164 720.838 72.7424Z" fill="#B536FB"/>
<path d="M779.42 111.586V15.3488H789.455V111.586H779.42Z" fill="#B536FB"/>
<path d="M829.699 112.706C813.332 112.706 801.505 100.63 801.505 80.3367V79.3407C801.505 59.4211 813.452 45.3528 830.655 45.3528C841.049 45.3528 847.5 50.5817 851.084 56.9311V15.3488H861V111.586H851.084V100.381C847.5 106.73 838.779 112.706 829.699 112.706ZM830.774 104.116C842.363 104.116 851.442 96.148 851.442 79.4652V78.4693C851.442 61.7865 843.796 53.9431 831.611 53.9431C819.186 53.9431 811.779 63.0315 811.779 78.8428V79.8387C811.779 96.2725 820.261 104.116 830.774 104.116Z" fill="#B536FB"/>
</svg>
