<svg width="32" height="32" viewBox="0 0 32 32" fill="none" xmlns="http://www.w3.org/2000/svg">
<path d="M16 8V28" stroke="#C7FDD1" stroke-width="1.33333" stroke-linecap="round" stroke-linejoin="round"/>
<path d="M12.1079 28H19.8559" stroke="#C7FDD1" stroke-width="1.33333" stroke-linecap="round" stroke-linejoin="round"/>
<path d="M1.33472 15.997L6.00005 5.33301L10.6494 15.997" stroke="#C7FDD1" stroke-width="1.33333" stroke-linecap="round" stroke-linejoin="round"/>
<path d="M14.1133 5.33301H4" stroke="#C7FDD1" stroke-width="1.33333" stroke-linecap="round" stroke-linejoin="round"/>
<path d="M10.6666 16C10.6666 17.2377 10.1749 18.4247 9.29975 19.2998C8.42458 20.175 7.2376 20.6667 5.99992 20.6667C4.76224 20.6667 3.57526 20.175 2.70009 19.2998C1.82492 18.4247 1.33325 17.2377 1.33325 16H10.6666Z" fill="#B536FB" stroke="#C7FDD1" stroke-width="1.33333" stroke-linecap="round" stroke-linejoin="round"/>
<path d="M30.6653 15.997L25.9999 5.33301L21.3506 15.997" stroke="#C7FDD1" stroke-width="1.33333" stroke-linecap="round" stroke-linejoin="round"/>
<path d="M17.8867 5.33301H28.0001" stroke="#C7FDD1" stroke-width="1.33333" stroke-linecap="round" stroke-linejoin="round"/>
<path d="M21.3333 16C21.3333 17.2377 21.8249 18.4247 22.7001 19.2998C23.5753 20.175 24.7622 20.6667 25.9999 20.6667C27.2376 20.6667 28.4246 20.175 29.2997 19.2998C30.1749 18.4247 30.6666 17.2377 30.6666 16H21.3333Z" fill="#B536FB" stroke="#C7FDD1" stroke-width="1.33333" stroke-linecap="round" stroke-linejoin="round"/>
<path d="M14 6C14 6.53043 14.2107 7.03914 14.5858 7.41421C14.9609 7.78929 15.4696 8 16 8C16.5304 8 17.0391 7.78929 17.4142 7.41421C17.7893 7.03914 18 6.53043 18 6C18 5.46957 17.7893 4.96086 17.4142 4.58579C17.0391 4.21071 16.5304 4 16 4C15.4696 4 14.9609 4.21071 14.5858 4.58579C14.2107 4.96086 14 5.46957 14 6Z" stroke="#C7FDD1" stroke-width="1.33333" stroke-linecap="round" stroke-linejoin="round"/>
</svg>
