<svg width="31" height="31" viewBox="0 0 31 31" fill="none" xmlns="http://www.w3.org/2000/svg">
<path d="M12.2387 11.4832C14.0721 11.4832 15.5584 9.99691 15.5584 8.16347C15.5584 6.33004 14.0721 4.84375 12.2387 4.84375C10.4052 4.84375 8.91895 6.33004 8.91895 8.16347C8.91895 9.99691 10.4052 11.4832 12.2387 11.4832Z" fill="#B536FB" stroke="#C7FDD1" stroke-width="1.33333" stroke-linecap="round" stroke-linejoin="round"/>
<path d="M26.3732 13.3457H28.3968C28.7547 13.3457 29.0978 13.4878 29.3508 13.7409C29.6038 13.9938 29.7459 14.337 29.7459 14.6948V28.1854C29.7459 28.5432 29.6038 28.8864 29.3508 29.1393C29.0978 29.3924 28.7547 29.5345 28.3968 29.5345H17.6044C17.2466 29.5345 16.9035 29.3924 16.6504 29.1393C16.3975 28.8864 16.2554 28.5432 16.2554 28.1854V14.6948C16.2554 14.337 16.3975 13.9938 16.6504 13.7409C16.9035 13.4878 17.2466 13.3457 17.6044 13.3457H19.628" stroke="#C7FDD1" stroke-width="1.33333" stroke-linecap="round" stroke-linejoin="round"/>
<path d="M25.0252 11.4307H20.978C20.2329 11.4307 19.6289 12.0347 19.6289 12.7797V14.1784C19.6289 14.9234 20.2329 15.5274 20.978 15.5274H25.0252C25.7702 15.5274 26.3742 14.9234 26.3742 14.1784V12.7797C26.3742 12.0347 25.7702 11.4307 25.0252 11.4307Z" stroke="#C7FDD1" stroke-width="1.33333" stroke-linecap="round" stroke-linejoin="round"/>
<path d="M20.1333 23.8625L22.2852 25.2971L25.8718 19.5586" stroke="#C7FDD1" stroke-width="1.33333" stroke-linecap="round" stroke-linejoin="round"/>
<path d="M22.9912 9.36921C23.6428 8.65996 23.6428 7.66699 22.9912 6.95775C21.1993 4.97184 17.1269 1 12.2399 1C7.353 1 3.28057 4.97184 1.48869 6.95775C0.837103 7.66699 0.837103 8.65996 1.48869 9.36921C3.28057 11.497 7.353 15.327 12.2399 15.327C12.726 15.327 13.2041 15.2877 13.6726 15.2149" stroke="#C7FDD1" stroke-width="1.33333" stroke-miterlimit="10" stroke-linecap="round" stroke-linejoin="round"/>
</svg>
