<svg width="64" height="64" viewBox="0 0 64 64" fill="none" xmlns="http://www.w3.org/2000/svg">
<path d="M57.5924 11.5204V49.9204H53.7524C53.4129 49.9204 53.0873 50.0552 52.8473 50.2953C52.6072 50.5353 52.4724 50.8609 52.4724 51.2004V55.0404H29.4324V34.5604H8.95239V11.5204H12.7924C13.1319 11.5204 13.4574 11.3855 13.6975 11.1455C13.9375 10.9054 14.0724 10.5799 14.0724 10.2404V6.40039H52.4724V10.2404C52.4724 10.5799 52.6072 10.9054 52.8473 11.1455C53.0873 11.3855 53.4129 11.5204 53.7524 11.5204H57.5924Z" stroke="#C7FDD1" stroke-width="0.96" stroke-linecap="round" stroke-linejoin="round"/>
<path d="M14.0723 2.56027V10.2403C14.0723 10.5798 13.9374 10.9053 13.6974 11.1454C13.4573 11.3854 13.1318 11.5203 12.7923 11.5203H5.11228C4.7728 11.5203 4.44723 11.3854 4.20718 11.1454C3.96713 10.9053 3.83228 10.5798 3.83228 10.2403V2.56027C3.83228 2.2208 3.96713 1.89522 4.20718 1.65518C4.44723 1.41513 4.7728 1.28027 5.11228 1.28027H12.7923C13.1318 1.28027 13.4573 1.41513 13.6974 1.65518C13.9374 1.89522 14.0723 2.2208 14.0723 2.56027Z" fill="#B536FB"/>
<path d="M62.7124 2.56027V10.2403C62.7124 10.5798 62.5776 10.9053 62.3375 11.1454C62.0975 11.3854 61.7719 11.5203 61.4324 11.5203H53.7524C53.4129 11.5203 53.0874 11.3854 52.8473 11.1454C52.6073 10.9053 52.4724 10.5798 52.4724 10.2403V2.56027C52.4724 2.2208 52.6073 1.89522 52.8473 1.65518C53.0874 1.41513 53.4129 1.28027 53.7524 1.28027H61.4324C61.7719 1.28027 62.0975 1.41513 62.3375 1.65518C62.5776 1.89522 62.7124 2.2208 62.7124 2.56027Z" fill="#B536FB"/>
<path d="M62.7124 51.1999V58.8799C62.7124 59.2194 62.5776 59.545 62.3375 59.785C62.0975 60.0251 61.7719 60.1599 61.4324 60.1599H53.7524C53.4129 60.1599 53.0874 60.0251 52.8473 59.785C52.6073 59.545 52.4724 59.2194 52.4724 58.8799V51.1999C52.4724 50.8604 52.6073 50.5349 52.8473 50.2948C53.0874 50.0548 53.4129 49.9199 53.7524 49.9199H61.4324C61.7719 49.9199 62.0975 50.0548 62.3375 50.2948C62.5776 50.5349 62.7124 50.8604 62.7124 51.1999Z" fill="#B536FB"/>
<path d="M29.4348 34.5596V55.0396H10.2348C9.89536 55.0396 9.56978 54.9047 9.32974 54.6647C9.08969 54.4246 8.95483 54.099 8.95483 53.7596V34.5596H29.4348Z" fill="#B536FB"/>
<path d="M29.4348 34.5598L42.2348 21.7598" stroke="#C7FDD1" stroke-width="0.96" stroke-linecap="round" stroke-linejoin="round"/>
<path d="M31.9949 21.7598H42.2349V31.9998" stroke="#C7FDD1" stroke-width="0.96" stroke-linecap="round" stroke-linejoin="round"/>
<path d="M14.0723 2.56027V10.2403C14.0723 10.5798 13.9374 10.9053 13.6974 11.1454C13.4573 11.3854 13.1318 11.5203 12.7923 11.5203H5.11228C4.7728 11.5203 4.44723 11.3854 4.20718 11.1454C3.96713 10.9053 3.83228 10.5798 3.83228 10.2403V2.56027C3.83228 2.2208 3.96713 1.89522 4.20718 1.65518C4.44723 1.41513 4.7728 1.28027 5.11228 1.28027H12.7923C13.1318 1.28027 13.4573 1.41513 13.6974 1.65518C13.9374 1.89522 14.0723 2.2208 14.0723 2.56027Z" stroke="#C7FDD1" stroke-width="0.96" stroke-linecap="round" stroke-linejoin="round"/>
<path d="M62.7124 2.56027V10.2403C62.7124 10.5798 62.5776 10.9053 62.3375 11.1454C62.0975 11.3854 61.7719 11.5203 61.4324 11.5203H53.7524C53.4129 11.5203 53.0874 11.3854 52.8473 11.1454C52.6073 10.9053 52.4724 10.5798 52.4724 10.2403V2.56027C52.4724 2.2208 52.6073 1.89522 52.8473 1.65518C53.0874 1.41513 53.4129 1.28027 53.7524 1.28027H61.4324C61.7719 1.28027 62.0975 1.41513 62.3375 1.65518C62.5776 1.89522 62.7124 2.2208 62.7124 2.56027Z" stroke="#C7FDD1" stroke-width="0.96" stroke-linecap="round" stroke-linejoin="round"/>
<path d="M62.7124 51.1999V58.8799C62.7124 59.2194 62.5776 59.545 62.3375 59.785C62.0975 60.0251 61.7719 60.1599 61.4324 60.1599H53.7524C53.4129 60.1599 53.0874 60.0251 52.8473 59.785C52.6073 59.545 52.4724 59.2194 52.4724 58.8799V51.1999C52.4724 50.8604 52.6073 50.5349 52.8473 50.2948C53.0874 50.0548 53.4129 49.9199 53.7524 49.9199H61.4324C61.7719 49.9199 62.0975 50.0548 62.3375 50.2948C62.5776 50.5349 62.7124 50.8604 62.7124 51.1999Z" stroke="#C7FDD1" stroke-width="0.96" stroke-linecap="round" stroke-linejoin="round"/>
<path d="M29.4348 34.5596V55.0396H10.2348C9.89536 55.0396 9.56978 54.9047 9.32974 54.6647C9.08969 54.4246 8.95483 54.099 8.95483 53.7596V34.5596H29.4348Z" stroke="#C7FDD1" stroke-width="0.96" stroke-linecap="round" stroke-linejoin="round"/>
</svg>
