<svg width="32" height="32" viewBox="0 0 32 32" fill="none" xmlns="http://www.w3.org/2000/svg">
<path d="M14.0002 23.3333C15.7683 23.3333 17.464 22.631 18.7142 21.3807C19.9644 20.1305 20.6668 18.4348 20.6668 16.6667C20.6668 14.8986 19.9644 13.2029 18.7142 11.9526C17.464 10.7024 15.7683 10 14.0002 10C12.2321 10 10.5364 10.7024 9.28612 11.9526C8.03587 13.2029 7.3335 14.8986 7.3335 16.6667C7.3335 18.4348 8.03587 20.1305 9.28612 21.3807C10.5364 22.631 12.2321 23.3333 14.0002 23.3333Z" fill="#B536FB" stroke="#C7FDD1" stroke-linecap="round" stroke-linejoin="round"/>
<path d="M25.7131 13.9996C26.2908 16.549 26.0202 19.2172 24.9425 21.5987C23.8648 23.9802 22.0389 25.9447 19.7425 27.1935C17.4461 28.4423 14.8047 28.907 12.2199 28.5171C9.63518 28.1273 7.24842 26.904 5.42253 25.0334C3.59663 23.1629 2.43148 20.7472 2.1042 18.1538C1.77693 15.5604 2.30544 12.931 3.60937 10.6654C4.91331 8.39988 6.92135 6.62206 9.32822 5.60226C11.7351 4.58246 14.4091 4.37646 16.9438 5.01558" stroke="#C7FDD1" stroke-linecap="round" stroke-linejoin="round"/>
<path d="M6.52533 26.0547L2 31.3334" stroke="#C7FDD1" stroke-linecap="round" stroke-linejoin="round"/>
<path d="M21.4746 26.0547L25.9999 31.3334" stroke="#C7FDD1" stroke-linecap="round" stroke-linejoin="round"/>
<path d="M14 16.6663L21.3333 9.33301" stroke="#C7FDD1" stroke-linecap="round" stroke-linejoin="round"/>
<path d="M22.1148 3.88566C21.6147 4.38564 21.3336 5.06381 21.3335 5.77099V9.33366H24.8962C25.6034 9.33351 26.2815 9.05246 26.7815 8.55233L30.0002 5.33366H25.3335V0.666992L22.1148 3.88566Z" fill="#B536FB" stroke="#C7FDD1" stroke-linecap="round" stroke-linejoin="round"/>
</svg>
