<svg width="66" height="66" viewBox="0 0 66 66" fill="none" xmlns="http://www.w3.org/2000/svg">
<path d="M1 29.0976C1 32.7874 1.72676 36.4411 3.1388 39.85C4.55083 43.259 6.62048 46.3564 9.22958 48.9655C11.8387 51.5746 14.9361 53.6443 18.3451 55.0563C21.754 56.4684 25.4077 57.1951 29.0976 57.1951C32.7874 57.1951 36.4411 56.4684 39.85 55.0563C43.259 53.6443 46.3564 51.5746 48.9655 48.9655C51.5746 46.3564 53.6443 43.259 55.0563 39.85C56.4684 36.4411 57.1951 32.7874 57.1951 29.0976C57.1951 25.4077 56.4684 21.754 55.0563 18.3451C53.6443 14.9361 51.5746 11.8387 48.9655 9.22958C46.3564 6.62048 43.259 4.55083 39.85 3.1388C36.4411 1.72676 32.7874 1 29.0976 1C25.4077 1 21.754 1.72676 18.3451 3.1388C14.9361 4.55083 11.8387 6.62048 9.22958 9.22958C6.62048 11.8387 4.55083 14.9361 3.1388 18.3451C1.72676 21.754 1 25.4077 1 29.0976Z" fill="#B536FB" stroke="#C7FDD1"/>
<path d="M10.4504 29.9331H18.6456L24.1652 19.3965L32.5258 38.7963L39.7187 29.9299H47.7453" stroke="#C7FDD1"/>
<path d="M49.3901 49.3906L64.9999 65.0004" stroke="#C7FDD1"/>
</svg>
